<svg height="96" viewBox="0 0 96 96" width="96" xmlns="http://www.w3.org/2000/svg"><g fill="none" fill-rule="evenodd"><path d="m4 4h88v88h-88z" opacity=".5"/><g fill-rule="nonzero"><path d="m11 16h73.846154v64h-73.846154z" fill="#000" opacity="0"/><g transform="translate(11 16)"><path d="m33.0387692 10.24h37.0953846c2.0676924 0 3.712 1.71264 3.712 3.82208v46.11584c0 2.09408-1.6615384 3.82208-3.712 3.82208h-66.4221538c-2.06769231 0-3.712-1.71264-3.712-3.82208v-53.79584c0-2.1248 1.65169231-3.82208 3.69230769-3.82208h19.21230771c1.3883077 0 3.0252308.99072 3.6972308 2.2144l2.4984615 4.54912s.9846154.91648 3.9384615.91648z" fill="#58aaed"/><path d="m33.0387692 7.68h37.0953846c2.0676924 0 3.712 1.71264 3.712 3.82208v46.11584c0 2.09408-1.6615384 3.82208-3.712 3.82208h-66.4221538c-2.06769231 0-3.712-1.71264-3.712-3.82208v-53.79584c0-2.1248 1.65169231-3.82208 3.69230769-3.82208h19.21230771c1.3883077 0 3.0252308.99072 3.6972308 2.2144l2.4984615 4.54912s.9846154.91648 3.9384615.91648z" fill="#92ceff"/></g></g></g></svg>