<svg height="96" viewBox="0 0 96 96" width="96" xmlns="http://www.w3.org/2000/svg"><g fill="none" transform="translate(.666667 16)"><path d="m43.4409333 7.2h37.1726667c2.072 0 3.7197333 1.6056 3.7197333 3.5832v49.6336c0 1.9632-1.665 3.5832-3.7197333 3.5832h-66.5605333c-2.072 0-3.7197334-1.6056-3.7197334-3.5832v-56.8336c0-1.992 1.6551334-3.5832 3.7-3.5832h19.2523334c1.3912 0 3.0315333.9288 3.7049333 2.076l2.5036667 4.2648s.9866666.8592 3.9466666.8592z" fill="#58aaed"/><path d="m42.4487768 28.2352941h46.1141402c2.5703967 0 4.1919685 1.6134706 3.6742129 3.6007647l-6.6408183 26.5631765c-.4724402 1.9728235-2.5477977 3.6007647-4.6305074 3.6007647h-67.4667947c-2.1002115 0-4.15030755-1.6134706-4.62090025-3.6007647l-8.4496808-33.7984706c-.52688118-2.0017647 1.18876051-3.6007647 3.83097968-3.6007647h24.87638197c1.7976015 0 3.9898198.9333529 4.9393856 2.0861765l3.4309344 4.2857059s1.2706715.8634117 4.9426667.8634117z" fill="#92ceff"/></g></svg>