<svg height="96" viewBox="0 0 96 96" width="96" xmlns="http://www.w3.org/2000/svg"><g fill="none" fill-rule="evenodd" transform="translate(11 11)"><path d="m0 70.1861998v-25.71729c.00416256-2.1671508.97744581-4.243764 2.70508052-5.7716043l31.06257618-27.63436c.8599783-.7659186 2.026934-1.19627883 3.2438041-1.19627883s2.3838257.43036023 3.243804 1.19627883l31.0625763 27.63436c1.719226 1.531185 2.684069 3.6073849 2.6821561 5.7716043v25.71729c0 2.1062735-1.9192948 3.8137456-4.2868648 3.8137456h-65.40334315c-1.14091401.0054279-2.23719342-.3939788-3.04610147-1.109784s-1.26370409-1.6889499-1.26368778-2.7039616z" fill="#e0ac5e" fill-rule="nonzero"/><path d="m0 67.2528664v-32.6506233c.00416256-2.1671508.97744581-4.2437639 2.70508052-5.7716043l31.06257618-27.63436c.8599783-.76591857 2.026934-1.1962788 3.2438041-1.1962788s2.3838257.43036023 3.243804 1.1962788l31.0625763 27.63436c1.719226 1.531185 2.684069 3.6073849 2.6821561 5.7716043v32.6506233c0 2.1062736-1.9192948 3.8137457-4.2868648 3.8137457h-65.40334315c-1.14091401.0054278-2.23719342-.3939789-3.04610147-1.1097841s-1.26370409-1.6889498-1.26368778-2.7039616z" fill="#efce9c" fill-rule="nonzero"/><g fill="#e0ac5e"><path d="m19.7333333 39.4666667h14.8v31.6h-14.8z"/><path d="m44.4 44.4h14.8v14.8h-14.8z"/></g></g></svg>