<svg height="16" viewBox="0 0 16 16" width="16" xmlns="http://www.w3.org/2000/svg"><g fill="none" transform="translate(0 1)"><path d="m0 0h15v13h-15z" fill="#000" opacity="0"/><path d="m6.711 2.08h8.535c.42 0 .754.34788.754.77636v9.36728c0 .42536-.3375.77636-.754.77636h-14.492c-.42 0-.754-.34788-.754-.77636v-10.92728c0-.4316.3355-.77636.75-.77636h3.9025c.282 0 .6145.20124.751.4498l.5075.92404s.2.18616.8.18616z" fill="#e0ac5e"/><path d="m6.711 1.56h8.535c.42 0 .754.34788.754.77636v9.36728c0 .42536-.3375.77636-.754.77636h-14.492c-.42 0-.754-.34788-.754-.77636v-10.92728c0-.4316.3355-.77636.75-.77636h3.9025c.282 0 .6145.20124.751.4498l.5075.92404s.2.18616.8.18616z" fill="#efce9c"/><path d="m11.7142857 9.91666667h-.2857143v-4.375c0-.175-.1142857-.29166667-.2857143-.29166667h-1.99999996v-1.45833333c0-.175-.11428572-.29166667-.28571428-.29166667h-4c-.17142857 0-.28571429.11666667-.28571429.29166667v6.125h-.28571428c-.17142857 0-.28571429.11666663-.28571429.29166663s.11428572.2916667.28571429.2916667h7.42857141c.1714286 0 .2857143-.1166667.2857143-.2916667s-.1142857-.29166663-.2857143-.29166663zm-.8571428-4.08333333v4.08333333h-1.71428576v-4.08333333zm-5.71428576-1.75000001h3.42857143v5.83333334h-3.42857143zm.85714286 1.16666667h1.71428572c.17142856 0 .28571428-.11666666.28571428-.29166666s-.11428572-.29166667-.28571428-.29166667h-1.71428572c-.17142856 0-.28571428.11666667-.28571428.29166667s.11428572.29166666.28571428.29166666zm4.2857143 2.04166667c.1714285 0 .2857143-.11666667.2857143-.29166667v-.29166667c0-.17499999-.1142857-.29166666-.2857143-.29166666h-.57542859c-.16685714 0-.28171428.10266667-.28171428.29166666v.29166667c0 .19366667.09714285.29166667.28171428.29166667zm0 1.45833333c.1714285 0 .2857143-.11666667.2857143-.29166667v-.29166667c0-.17499999-.1142857-.29166666-.2857143-.29166666h-.57542859c-.16685714 0-.28171428.10266667-.28171428.29166666v.29166667c0 .19366667.09714285.29166667.28171428.29166667zm-2.57142858-2.91666666h-1.71428572c-.17142856 0-.28571428.11666666-.28571428.29166666s.11428572.29166667.28571428.29166667h1.71428572c.17142856 0 .28571428-.11666667.28571428-.29166667s-.11428572-.29166666-.28571428-.29166666zm0 1.16666666h-1.71428572c-.17142856 0-.28571428.11666667-.28571428.29166667 0 .17499999.11428572.29166666.28571428.29166666h1.71428572c.17142856 0 .28571428-.11666667.28571428-.29166666 0-.175-.11428572-.29166667-.28571428-.29166667zm0 1.16666666h-1.71428572c-.17142856 0-.28571428.11666667-.28571428.29166667s.11428572.29166667.28571428.29166667h1.71428572c.17142856 0 .28571428-.11666667.28571428-.29166667s-.11428572-.29166667-.28571428-.29166667z" fill="#b9863a"/></g></svg>