<svg height="16" viewBox="0 0 16 16" width="16" xmlns="http://www.w3.org/2000/svg"><g fill="none"><path d="m0 0h16v16h-16z" fill="#000" opacity="0"/><path d="m2.44545454 1h11.10909096c.4727272 0 .9454545.46153846.9454545.92307693v13.15384617c0 .4615384-.4727273.9230769-.9454545.9230769h-11.10909096c-.47272727 0-.94545454-.4615385-.94545454-.9230769v-13.15384617c0-.57692307.47272727-.92307693.94545454-.92307693z" fill="#ba83f5"/><path d="m2.44545454 0h11.10909096c.4727272 0 .9454545.46153846.9454545.92307693v13.15384617c0 .4615384-.4727273.9230769-.9454545.9230769h-11.10909096c-.47272727 0-.94545454-.4615385-.94545454-.9230769v-13.15384617c0-.57692307.47272727-.92307693.94545454-.92307693z" fill="#d6b9f6"/><path d="m14.5 12.5v2.0153846c0 .4923077-.4727273.9846154-.9454545.9846154h-11.10909096c-.47272727 0-.94545454-.4923077-.94545454-.9846154v-2.0153846z" fill="#cb9bff"/><path d="m7 0h5v7l-2.5-1.2-2.5 1.2z" fill="#ba83f5"/></g></svg>