<svg height="16" viewBox="0 0 18 16" width="18" xmlns="http://www.w3.org/2000/svg"><g fill="none" transform="translate(1)"><path d="m0 0h16v16h-16z"/><path d="m0 15.1164824v-7.24338121c.00090001-.50204227.21133963-.98311058.58488225-1.33705016l6.71623243-5.25892102c.18594126-.17743274.43825598-.27713001.70136302-.27713001s.51542176.09969727.70136302.27713001l6.71623248 5.25892102c.3717245.35471441.5803392.83568698.5799268 1.33705016v7.24338121c0 .4879395-.4149839.8835298-.9268909.8835298h-14.14126281c-.2466841.0012202-.48371748-.0913064-.65861651-.2571299-.17489903-.1658234-.27322978-.3912622-.27322978-.6263999z" fill="#b2c6a8"/><path d="m.0000005 14.616488v-7.74338139c.00090001-.50204226.21133963-.98311058.58488225-1.33705015l6.71623243-5.25892103c.18594126-.17743273.43825598-.27713001.70136302-.27713001s.51542176.09969728.70136302.27713001l6.71623248 5.25892103c.3717245.3547144.5803392.83568697.5799268 1.33705015v7.84338139c0 .4879394-.4149839.7835869-.9268909.7835869h-14.14126281c-.2466841.0011625-.48371748-.0913634-.65861651-.2571869s-.27322978-.3912623-.27322978-.6264z" fill="#e0edda"/><path d="m6.46779133 12.9996695h.39270549l1.31115613-2.5582571 1.07862826 2.5582571h.37807644l2.24089655-5.18565776c.1256192-.29091459.3704969-.46561261.6307458-.50516889v-.30884285h-1.8119895v.30894948c.2404255.05379014.495639.14441774.6091202.39961971l-1.64545136 3.81734101c-.29745758-.6362591-.60244171-1.3315327-.89353883-2.02536688.3004523-.64201655.5458336-1.23834613.91442234-1.82438682.21549244-.34481135.56518005-.35291452.74539305-.36986721v-.30628929h-1.92615972v.30628929c.24031944.0002399.74041072.02173996.51742354.49306743l-.55860753 1.18130406-.59168193-1.31404683c-.09211538-.20460513.0868203-.34091969.3789245-.35716336l-.00214666-.30916271h-2.16775128v.30626796c.25827714.00853499.62242416.00714359.75684191.2273953.41390703.76473698.69064011 1.55911452 1.06797449 2.3388317l-.97643685 1.83648826-1.64121107-3.79452412c-.18494102-.42760233.25412693-.56535627.53936713-.60107421l-.00320673-.31343287h-2.3112857v.30626796c.31913616.10613025.73081702.58364172.84572936.82529754.86337965 1.81628365 1.29811719 3.0339987 2.12222098 4.8681946z" fill="#9bb290"/></g></svg>