<svg xmlns="http://www.w3.org/2000/svg" xmlns:xlink="http://www.w3.org/1999/xlink" width="42" height="42" viewBox="0 0 42 42" fill="none"><g opacity="1"  transform="translate(0 0)  rotate(0)"><mask id="bg-mask-0" fill="white"><use transform="translate(0 0)  rotate(0)" xlink:href="#path_0"></use></mask><g mask="url(#bg-mask-0)" ><g opacity="1"  transform="translate(1 2)  rotate(0)"><g opacity="1"  transform="translate(0 0)  rotate(0)"><path id="路径 1" fill-rule="evenodd" style="fill:#6F42C1" opacity="1" d="M41.5 0L0 41.5L41.5 41.5L41.5 0Z"></path></g></g><path id="路径 2" fill-rule="evenodd" style="fill:#FFFFFF" opacity="1" d="M19.4,26.9l8.5,8.5l-2.9,2.8l-8.5,-8.5zM36.4,21.2l2.8,2.8l-14.1,14.2l-2.8,-2.8z"></path><g opacity="1"  transform="translate(25.06999969482422 32.54999923706055)  rotate(0)"><rect fill="#FFFFFF" opacity="1" transform="translate(0 0)  rotate(45)" x="0" y="0" width="3.96" height="4.01" rx="0" ry="0"/><mask id="bg-mask-1" fill="white"><use transform="translate(0 0)  rotate(45)" xlink:href="#path_1"></use></mask><g mask="url(#bg-mask-1)" ></g></g><g opacity="1"  transform="translate(26 36)  rotate(0)"><mask id="bg-mask-2" fill="white"><use transform="translate(0 0)  rotate(0)" xlink:href="#path_2"></use></mask><g mask="url(#bg-mask-2)" ></g></g></g></g><defs><rect id="path_0" x="0" y="0" width="42" height="42" /><rect id="path_1" x="0" y="0" width="3.96" height="4.01" /><rect id="path_2" x="0" y="0" width="1" height="1" /></defs></svg>