<svg xmlns="http://www.w3.org/2000/svg" viewBox="0 0 64 64"><g id="_27-After_effects" data-name="27-After effects"><path d="M43,1,55,13H43Z" style="fill:#d291ff"/><path d="M55,13V63H9V1H43V13Z" style="fill:#320066"/><path d="M11,9V57a4,4,0,0,0,4,4H49a4,4,0,0,0,4-4V54.877C11,52.289,11,9,11,9Z" style="fill:#1f0040"/><rect x="44" y="13" width="11" height="2" style="fill:#1f0040"/><rect x="1" y="4" width="36" height="16" style="fill:#d291ff"/><rect x="9" y="20" width="26" height="3" style="fill:#1f0040"/><polygon points="11.86 12 11.2 9 10.8 9 10.39 10.864 10.64 12 11.86 12" style="fill:#865da3"/><path d="M16,8v8a1,1,0,0,0,1,1h5V15H18V13h4V11H18V9h4V7H17A1,1,0,0,0,16,8Z" style="fill:#1f0040"/><path d="M28,7H25a1,1,0,0,0-1,1v9h2V13h2a3,3,0,0,0,0-6Zm0,4H26V9h2a1,1,0,0,1,0,2Z" style="fill:#1f0040"/><path d="M14.98,16.78l-2-9A1.015,1.015,0,0,0,12,7H10a1.015,1.015,0,0,0-.98.78l-2,9A1.635,1.635,0,0,0,7,17H9.02l.67-3h2.62l.67,3H15A1.635,1.635,0,0,0,14.98,16.78ZM10.14,12l.66-3h.4l.66,3Z" style="fill:#1f0040"/><path d="M13.807,17H12.98l-.67-3H9.69l-.223,1H11.31l.67,3H14a1.635,1.635,0,0,0-.02-.22Z" style="fill:#865da3"/><path d="M7.02,16.78,8.97,8.005a1.015,1.015,0,0,0-.95.775l-2,9A1.635,1.635,0,0,0,6,18H8.02l.223-1H7A1.635,1.635,0,0,1,7.02,16.78Z" style="fill:#865da3"/><rect x="18" y="9" width="3" height="1" style="fill:#865da3"/><path d="M16,16V8a1,1,0,0,0-1,1v8a1,1,0,0,0,1,1h5V17H17A1,1,0,0,1,16,16Z" style="fill:#865da3"/><rect x="18" y="13" width="3" height="1" style="fill:#865da3"/><path d="M28,9H26v1h1a1,1,0,0,1,1,1,1,1,0,0,0,0-2Z" style="fill:#865da3"/><path d="M24,8a1,1,0,0,0-1,1v9h2V17H24Z" style="fill:#865da3"/><path d="M26,13v1h1a2.993,2.993,0,0,0,2.554-1.446A2.976,2.976,0,0,1,28,13Z" style="fill:#865da3"/><path d="M40,50a2.153,2.153,0,0,1-1-2H49c0-8-7-8-7-8-3.869,0-7,3.578-7,8a6.668,6.668,0,0,0,7,7c5,0,7-2,7-2l-1-3S43,52,40,50Zm2.5-7C45,43,45,45,45,45H40S40,43,42.5,43Z" style="fill:#d291ff"/><path d="M40,50h7a11.243,11.243,0,0,0-.185-2H39A2.153,2.153,0,0,0,40,50Z" style="fill:#170030"/><path d="M42.5,43C40,43,40,45,40,45h5S45,43,42.5,43Z" style="fill:#170030"/><path d="M35,48a8.706,8.706,0,0,1,1.478-4.907A8.25,8.25,0,0,0,33,50a6.668,6.668,0,0,0,7,7c5,0,7-2,7-2l-.251-.752A13.812,13.812,0,0,1,42,55,6.668,6.668,0,0,1,35,48Z" style="fill:#170030"/><path d="M21,32v2L15,54h4l1.667-6h6.666L29,54h4L26,32Zm.778,12L24,36l2.222,8Z" style="fill:#d291ff"/><polygon points="27.333 48 20.667 48 20.111 50 25.333 50 27 56 31 56 30.364 54 29 54 27.333 48" style="fill:#170030"/><polygon points="21 34 19 34 19 36 13 56 17 56 17.556 54 15 54 21 34" style="fill:#170030"/><polygon points="24 36 22.722 40.6 23.667 44 26.222 44 24 36" style="fill:#170030"/></g></svg>