<svg xmlns="http://www.w3.org/2000/svg" viewBox="0 0 64 64"><g id="_10-AI" data-name="10-AI"><path d="M43,1,55,13H43Z" style="fill:#ff7d19"/><path d="M55,13V63H9V1H43V13Z" style="fill:#3d3026"/><path d="M11,9V57a4,4,0,0,0,4,4H49a4,4,0,0,0,4-4V54.877C11,52.289,11,9,11,9Z" style="fill:#2a1305"/><rect x="44" y="13" width="11" height="2" style="fill:#24170f"/><rect x="1" y="4" width="36" height="16" style="fill:#ff7d19"/><rect x="9" y="20" width="26" height="3" style="fill:#24170f"/><path d="M25,31v2L19,53h4l1.667-6h6.666L33,53h4L30,31Zm.778,12L28,35l2.222,8Z" style="fill:#ff761b"/><rect x="41" y="37" width="4" height="16" style="fill:#ff761b"/><circle cx="43" cy="32" r="2" style="fill:#ff761b"/><path d="M20.98,16.78l-2-9A1.015,1.015,0,0,0,18,7H16a1.015,1.015,0,0,0-.98.78l-2,9A1.635,1.635,0,0,0,13,17h2.02l.67-3h2.62l.67,3H21A1.635,1.635,0,0,0,20.98,16.78ZM16.14,12l.66-3h.4l.66,3Z" style="fill:#f2f2f2"/><path d="M19.807,17H18.98l-.67-3H15.69l-.223,1H17.31l.67,3H20a1.635,1.635,0,0,0-.02-.22Z" style="fill:#c25a14"/><polygon points="17.86 12 17.2 9 16.8 9 16.39 10.864 16.64 12 17.86 12" style="fill:#c25a14"/><path d="M13.02,16.78l1.95-8.775a1.015,1.015,0,0,0-.95.775l-2,9A1.635,1.635,0,0,0,12,18h2.02l.223-1H13A1.635,1.635,0,0,1,13.02,16.78Z" style="fill:#c25a14"/><rect x="23" y="7" width="2" height="10" style="fill:#f2f2f2"/><polygon points="23 8 23 17 24 17 24 18 22 18 22 8 23 8" style="fill:#c25a14"/><polygon points="31.333 47 24.667 47 24.111 49 29.333 49 31 55 35 55 34.364 53 33 53 31.333 47" style="fill:#260f03"/><polygon points="25 33 23 33 23 35 17 55 21 55 21.556 53 19 53 25 33" style="fill:#260f03"/><polygon points="28 35 26.722 39.6 27.667 43 30.222 43 28 35" style="fill:#260f03"/><polygon points="41 39 39 39 39 55 43 55 43 53 41 53 41 39" style="fill:#260f03"/><path d="M41,36a2,2,0,0,0,2-2,2,2,0,0,1-2-2,2,2,0,0,0,0,4Z" style="fill:#260f03"/></g></svg>