<svg xmlns="http://www.w3.org/2000/svg" viewBox="0 0 64 64"><g id="_22-AVI" data-name="22-AVI"><path d="M43,1,55,13H43Z" style="fill:#cdd1d6"/><path d="M55,13V63H9V1H43V13Z" style="fill:#f2f2f2"/><path d="M11,9V57a4,4,0,0,0,4,4H49a4,4,0,0,0,4-4V54.877C11,52.289,11,9,11,9Z" style="fill:#e2e2e2"/><rect x="44" y="13" width="11" height="2" style="fill:#e2e2e2"/><rect x="1" y="4" width="36" height="16" style="fill:#2b8ae6"/><rect x="9" y="20" width="26" height="3" style="fill:#e2e2e2"/><polygon points="15 29 15 55 45 55 45 58 12 58 12 29 15 29" style="fill:#ccc"/><rect x="23" y="27" width="17" height="7" style="fill:#2b8ae6"/><rect x="23" y="48" width="17" height="7" style="fill:#2b8ae6"/><rect x="23" y="34" width="17" height="14" style="fill:#2b8ae6"/><rect x="40" y="27" width="8" height="28" style="fill:#1668b8"/><rect x="15" y="27" width="8" height="28" style="fill:#1668b8"/><rect x="23" y="33" width="17" height="2" style="fill:#1668b8"/><rect x="23" y="47" width="17" height="2" style="fill:#1668b8"/><polygon points="35 41 29 45 29 37 35 41" style="fill:#fff"/><rect x="42" y="30" width="4" height="4" style="fill:#fff"/><rect x="42" y="36" width="4" height="4" style="fill:#fff"/><rect x="42" y="42" width="4" height="4" style="fill:#fff"/><rect x="42" y="48" width="4" height="4" style="fill:#fff"/><rect x="17" y="30" width="4" height="4" style="fill:#fff"/><rect x="17" y="36" width="4" height="4" style="fill:#fff"/><rect x="17" y="42" width="4" height="4" style="fill:#fff"/><rect x="17" y="48" width="4" height="4" style="fill:#fff"/><path d="M15.98,16.78l-2-9A1.015,1.015,0,0,0,13,7H11a1.015,1.015,0,0,0-.98.78l-2,9A1.635,1.635,0,0,0,8,17h2.02l.67-3h2.62l.67,3H16A1.635,1.635,0,0,0,15.98,16.78ZM11.14,12l.66-3h.4l.66,3Z" style="fill:#f2f2f2"/><rect x="26" y="7" width="2" height="10" style="fill:#f2f2f2"/><path d="M20.2,15h-.4L18.024,7H16a1.052,1.052,0,0,0,.023.217l2,9A1,1,0,0,0,19,17h2a1,1,0,0,0,.977-.783l2-9A1.052,1.052,0,0,0,24,7H21.976Z" style="fill:#f2f2f2"/><path d="M14.807,17H13.98l-.67-3H10.69l-.223,1H12.31l.67,3H15a1.635,1.635,0,0,0-.02-.22Z" style="fill:#1668b8"/><polygon points="12.86 12 12.2 9 11.8 9 11.39 10.864 11.64 12 12.86 12" style="fill:#1668b8"/><path d="M8.02,16.78,9.97,8.005a1.015,1.015,0,0,0-.95.775l-2,9A1.635,1.635,0,0,0,7,18H9.02l.223-1H8A1.635,1.635,0,0,1,8.02,16.78Z" style="fill:#1668b8"/><polygon points="26 8 25 8 25 18 27 18 27 17 26 17 26 8" style="fill:#1668b8"/><path d="M19,17a1,1,0,0,1-.977-.783L16.2,8H15a1.052,1.052,0,0,0,.023.217l2,9A1,1,0,0,0,18,18h2a1,1,0,0,0,.977-.783L21.026,17c-.009,0-.017,0-.026,0Z" style="fill:#1668b8"/><polygon points="20.198 15 21.754 8 20.976 8 19.611 14.142 19.802 15 20.198 15" style="fill:#1668b8"/></g></svg>