<svg id="_01-Dll" data-name="01-Dll" xmlns="http://www.w3.org/2000/svg" viewBox="0 0 64 64"><path d="M43,1,55,13H43Z" style="fill:#cdd1d6"/><path d="M55,13V63H9V1H43V13Z" style="fill:#f2f2f2"/><path d="M11,9V57a4,4,0,0,0,4,4H49a4,4,0,0,0,4-4V54.877C11,52.289,11,9,11,9Z" style="fill:#e2e2e2"/><rect x="44" y="13" width="11" height="2" style="fill:#e2e2e2"/><path d="M49,43v4H47.27a7.167,7.167,0,0,1-.9,2.17l1.22,1.22-2.2,2.2-1.22-1.22a7.167,7.167,0,0,1-2.17.9V54H38V52.27a7.167,7.167,0,0,1-2.17-.9l-1.22,1.22-2.2-2.2,1.22-1.22a7.167,7.167,0,0,1-.9-2.17H31V43h1.73a7.167,7.167,0,0,1,.9-2.17l-1.22-1.22,2.2-2.2,1.22,1.22a7.167,7.167,0,0,1,2.17-.9V36h4v1.73a7.167,7.167,0,0,1,2.17.9l1.22-1.22,2.2,2.2-1.22,1.22a7.167,7.167,0,0,1,.9,2.17Zm-5,2a4,4,0,1,0-4,4A4,4,0,0,0,44,45Z" style="fill:#c1cede"/><path d="M41,21v4H38.27a10.871,10.871,0,0,1-1.41,3.4l1.93,1.93-3.46,3.46L33.4,31.86A10.871,10.871,0,0,1,30,33.27V36H26V33.27a10.871,10.871,0,0,1-3.4-1.41l-1.93,1.93-3.46-3.46,1.93-1.93A10.871,10.871,0,0,1,17.73,25H15V21h2.73a10.871,10.871,0,0,1,1.41-3.4l-1.93-1.93,3.46-3.46,1.93,1.93A10.871,10.871,0,0,1,26,12.73V10h4v2.73a10.871,10.871,0,0,1,3.4,1.41l1.93-1.93,3.46,3.46L36.86,17.6A10.871,10.871,0,0,1,38.27,21Zm-7,2a6,6,0,1,0-6,6A6,6,0,0,0,34,23Z" style="fill:#c1cede"/><path d="M33.63,40.83a7.167,7.167,0,0,0-.9,2.17h-.69a7.124,7.124,0,0,1,.59-1.17l-1.22-1.22,1-1Z" style="fill:#e6e9ed"/><path d="M45.39,52.59l-1,1-1.22-1.22a7.124,7.124,0,0,1-1.17.59v-.69a7.167,7.167,0,0,0,2.17-.9Z" style="fill:#e2e2e2"/><path d="M41,54v1H37V53.27a7.167,7.167,0,0,1-2.17-.9l1-1a7.167,7.167,0,0,0,2.17.9V54Z" style="fill:#e2e2e2"/><rect x="32.303" y="50.434" width="1.414" height="3.111" transform="translate(-27.094 38.569) rotate(-45)" style="fill:#e2e2e2"/><path d="M33.63,49.17l-1,1a7.167,7.167,0,0,1-.9-2.17H30V44h1v3h1.73A7.167,7.167,0,0,0,33.63,49.17Z" style="fill:#e2e2e2"/><path d="M19.14,17.6A10.871,10.871,0,0,0,17.73,21h-.72a10.976,10.976,0,0,1,1.13-2.4l-1.93-1.93,1-1Z" style="fill:#e2e2e2"/><path d="M35.33,33.79l-1,1L32.4,32.86A10.976,10.976,0,0,1,30,33.99v-.72a10.871,10.871,0,0,0,3.4-1.41Z" style="fill:#e2e2e2"/><path d="M29,36v1H25V34.27a10.871,10.871,0,0,1-3.4-1.41l1-1A10.871,10.871,0,0,0,26,33.27V36Z" style="fill:#e2e2e2"/><rect x="17.733" y="30.113" width="1.414" height="4.893" transform="translate(-17.622 22.576) rotate(-45)" style="fill:#e2e2e2"/><path d="M19.14,28.4l-1,1A10.871,10.871,0,0,1,16.73,26H14V22h1v3h2.73A10.871,10.871,0,0,0,19.14,28.4Z" style="fill:#e2e2e2"/><path d="M44,45a3.981,3.981,0,0,1-1.72,3.28,3.993,3.993,0,0,0-5.56-5.56A4,4,0,0,1,44,45Z" style="fill:#e2e2e2"/><path d="M34,23a5.983,5.983,0,0,1-2.29,4.71A5.944,5.944,0,0,0,33,24a6,6,0,0,0-6-6,5.944,5.944,0,0,0-3.71,1.29A6,6,0,0,1,34,23Z" style="fill:#e2e2e2"/><path d="M28,16a7,7,0,1,0,7,7A6.995,6.995,0,0,0,28,16Zm0,13a6,6,0,1,1,6-6A6,6,0,0,1,28,29Z" style="fill:#afc0d4"/><path d="M40,40a5,5,0,1,0,5,5A5,5,0,0,0,40,40Zm0,9a4,4,0,1,1,4-4A4,4,0,0,1,40,49Z" style="fill:#afc0d4"/></svg>