<svg xmlns="http://www.w3.org/2000/svg" viewBox="0 0 64 64"><g id="_13-DOC" data-name="13-DOC"><path d="M43,1,55,13H43Z" style="fill:#cdd1d6"/><path d="M55,13V63H9V1H43V13Z" style="fill:#f2f2f2"/><path d="M11,9V57a4,4,0,0,0,4,4H49a4,4,0,0,0,4-4V54.877C11,52.289,11,9,11,9Z" style="fill:#e2e2e2"/><rect x="44" y="13" width="11" height="2" style="fill:#e2e2e2"/><rect x="1" y="4" width="36" height="16" style="fill:#185abd"/><rect x="9" y="20" width="26" height="3" style="fill:#e2e2e2"/><rect x="15" y="27" width="20" height="20" style="fill:#185abd"/><rect x="39" y="33" width="11" height="2" style="fill:#41a5ee"/><rect x="39" y="37" width="11" height="2" style="fill:#2b7cd3"/><rect x="39" y="41" width="11" height="2" style="fill:#185abd"/><rect x="14" y="50" width="36" height="2" style="fill:#185abd"/><rect x="14" y="54" width="36" height="2" style="fill:#185abd"/><path d="M28.479,40.958l-2.514-9.221a1,1,0,0,0-1.93,0l-2.514,9.221L19.031,31H17a1,1,0,0,0,.03.243l3,12A1,1,0,0,0,21,44h1a1,1,0,0,0,.965-.737L25,35.8l2.035,7.462A1,1,0,0,0,28,44h1a1,1,0,0,0,.97-.758l3-12A1,1,0,0,0,33,31H30.969Z" style="fill:#f2f2f2"/><path d="M9,17H7a1,1,0,0,1-1-1V8A1,1,0,0,1,7,7H9A5,5,0,0,1,9,17ZM8,15H9A3,3,0,0,0,9,9H8Z" style="fill:#f2f2f2"/><path d="M30,17H29A5,5,0,0,1,29,7h1V9H29a3,3,0,0,0,0,6h1Z" style="fill:#f2f2f2"/><path d="M19,17a4,4,0,0,1-4-4V11a4,4,0,0,1,8,0v2A4,4,0,0,1,19,17Zm0-8a2,2,0,0,0-2,2v2a2,2,0,0,0,4,0V11A2,2,0,0,0,19,9Z" style="fill:#f2f2f2"/><path d="M12,16a5.01,5.01,0,0,1-4,2H6a1,1,0,0,1-1-1V9A1,1,0,0,1,6,8v8a1,1,0,0,0,1,1H9A4.941,4.941,0,0,0,12,16Z" style="fill:#08449e"/><path d="M29,17v1H28a5,5,0,0,1-3-9,4.941,4.941,0,0,0-1,3A5,5,0,0,0,29,17Z" style="fill:#08449e"/><path d="M29,9v1H28a2.981,2.981,0,0,0-1.56.44A3.012,3.012,0,0,1,29,9Z" style="fill:#08449e"/><path d="M21.28,16.28A4,4,0,0,1,14,14V12a3.981,3.981,0,0,1,1.72-3.28A4.009,4.009,0,0,0,15,11v2a3.993,3.993,0,0,0,6.28,3.28Z" style="fill:#08449e"/><path d="M12,12a3.012,3.012,0,0,1-1.44,2.56A3,3,0,0,0,8,10V9H9A3.009,3.009,0,0,1,12,12Z" style="fill:#08449e"/><path d="M21,11v2a2,2,0,0,1-1.18,1.82A1.891,1.891,0,0,0,20,14V12a2.006,2.006,0,0,0-2-2,1.891,1.891,0,0,0-.82.18A2,2,0,0,1,21,11Z" style="fill:#08449e"/><path d="M22.03,44l-.07.26A.985.985,0,0,1,21,45H20a1,1,0,0,1-.97-.76l-3-12A.986.986,0,0,1,16,32h1.22l2.81,11.24A1,1,0,0,0,21,44Z" style="fill:#08449e"/><path d="M23.97,32l-2.45,8.96-.35-1.39,1.87-6.83A.982.982,0,0,1,23.97,32Z" style="fill:#08449e"/><path d="M29.03,44l-.06.24A1,1,0,0,1,28,45H27a.985.985,0,0,1-.96-.74l-1.68-6.13L25,35.8l2.04,7.46A.985.985,0,0,0,28,44Z" style="fill:#08449e"/><polygon points="30.72 32 28.48 40.96 28.09 39.53 29.97 32 30.72 32" style="fill:#08449e"/></g></svg>