<svg xmlns="http://www.w3.org/2000/svg" viewBox="0 0 64 64"><g id="_24-DWG" data-name="24-DWG"><path d="M42,1,54,13H42Z" style="fill:#9eb2d7"/><path d="M54,13V63H8V1H42V13Z" style="fill:#5a6e87"/><path d="M10,9V57a4,4,0,0,0,4,4H48a4,4,0,0,0,4-4V54.877C10,52.289,10,9,10,9Z" style="fill:#344d76"/><rect x="43" y="13" width="11" height="2" style="fill:#233e6d"/><rect y="4" width="36" height="16" style="fill:#f7db70"/><rect x="8" y="20" width="26" height="3" style="fill:#233e6d"/><rect x="23" y="40" width="2" height="2" style="fill:#fff"/><path d="M50,40H31V35a1,1,0,0,0-1-1H25V25H23v9H18a1,1,0,0,0-1,1v5H12v2h5v5a1,1,0,0,0,1,1h5v9h2V48h5a1,1,0,0,0,1-1V42H50ZM29,46H19V36H29Z" style="fill:#fff"/><path d="M8,17H6a1,1,0,0,1-1-1V8A1,1,0,0,1,6,7H8A5,5,0,0,1,8,17ZM7,15H8A3,3,0,0,0,8,9H7Z" style="fill:#100f31"/><path d="M28,17H25a2,2,0,0,1-2-2V9a2,2,0,0,1,2-2h4V9H25v6h3V13H26V11h3a1,1,0,0,1,1,1v3A2,2,0,0,1,28,17Z" style="fill:#100f31"/><path d="M20.006,6.89l-.385,3.469-.651-2.6a1,1,0,0,0-1.94,0l-.651,2.6L15.994,6.89l-1.988.22,1,9a1,1,0,0,0,1.964.133L18,12.123l1.03,4.12A1,1,0,0,0,20,17c.022,0,.044,0,.067,0a1,1,0,0,0,.927-.888l1-9Z" style="fill:#100f31"/><path d="M16.968,8.005a1,1,0,0,0-.8.443l.212,1.911Z" style="fill:#c9a416"/><polygon points="19.884 7.987 19.006 7.89 19.005 7.898 19.621 10.359 19.884 7.987" style="fill:#c9a416"/><path d="M15.006,16.11l-.9-8.122-1.1.122,1,9a1,1,0,0,0,1.964.133l.064-.256c-.034,0-.066.013-.1.011A1,1,0,0,1,15.006,16.11Z" style="fill:#c9a416"/><path d="M19.03,16.243,18,12.123l-.625,2.5.655,2.62A1,1,0,0,0,19,18c.022,0,.044,0,.067,0a1,1,0,0,0,.927-.888l.012-.11H20A1,1,0,0,1,19.03,16.243Z" style="fill:#c9a416"/><path d="M6,17a1,1,0,0,1-1-1V8A1,1,0,0,0,4,9v8a1,1,0,0,0,1,1H7a4.981,4.981,0,0,0,3.986-2.014A4.953,4.953,0,0,1,8,17Z" style="fill:#c9a416"/><path d="M11,12A3,3,0,0,0,8,9H7v1a2.984,2.984,0,0,1,2.554,4.554A2.993,2.993,0,0,0,11,12Z" style="fill:#c9a416"/><polygon points="27 14 27 15 28 15 28 13 26 13 26 12 25 12 25 14 27 14" style="fill:#c9a416"/><path d="M25,17a2,2,0,0,1-2-2V9a1.99,1.99,0,0,1,.18-.82A2,2,0,0,0,22,10v6a2,2,0,0,0,2,2h3a2,2,0,0,0,1.82-1.18A1.99,1.99,0,0,1,28,17Z" style="fill:#c9a416"/><rect x="25" y="9" width="3" height="1" style="fill:#c9a416"/><polygon points="23 41 22 41 22 43 24 43 24 42 23 42 23 41" style="fill:#23395c"/><path d="M17,35a1,1,0,0,0-1,1v4h1Z" style="fill:#23395c"/><path d="M23,48H18a1,1,0,0,1-1-1V42H12V41H11v2h5v5a1,1,0,0,0,1,1h5v9h2V57H23Z" style="fill:#23395c"/><rect x="31" y="42" width="18" height="1" style="fill:#23395c"/><path d="M25,49h4a1,1,0,0,0,1-1H25Z" style="fill:#23395c"/><rect x="22" y="26" width="1" height="8" style="fill:#23395c"/><polygon points="19 37 28 37 28 46 29 46 29 36 19 36 19 37" style="fill:#23395c"/></g></svg>