<svg xmlns="http://www.w3.org/2000/svg" viewBox="0 0 64 64"><g id="_11-EPS" data-name="11-EPS"><path d="M43,1,55,13H43Z" style="fill:#cdd1d6"/><path d="M55,13V63H9V1H43V13Z" style="fill:#f2f2f2"/><path d="M11,9V57a4,4,0,0,0,4,4H49a4,4,0,0,0,4-4V54.877C11,52.289,11,9,11,9Z" style="fill:#e2e2e2"/><rect x="44" y="13" width="11" height="2" style="fill:#e2e2e2"/><rect x="1" y="4" width="36" height="16" style="fill:#3d3026"/><rect x="9" y="20" width="26" height="3" style="fill:#e2e2e2"/><rect x="29" y="25" width="2" height="2" style="fill:#f2f2f2"/><rect x="47" y="43" width="2" height="2" style="fill:#f2f2f2"/><rect x="37" y="33" width="4" height="4" style="fill:#f2f2f2"/><polygon points="39 53 39 57 35 57 35 53 38.99 53 39 53" style="fill:#f2f2f2"/><rect x="17" y="33" width="4" height="4" style="fill:#f2f2f2"/><path d="M41,37c1,2,1,4.14,1,6.5a16.387,16.387,0,0,1-3.01,9.49L21,33c2.32-1.88,4.28-3,7.5-3A13.453,13.453,0,0,1,37,33v4Z" style="fill:#e1e5eb"/><path d="M49,42.5H47.207L41.5,36.793V33a.5.5,0,0,0-.5-.5H37.207L31.5,26.793V25a.5.5,0,0,0-.5-.5H29a.5.5,0,0,0-.5.5v2a.5.5,0,0,0,.5.5h1.793l3.081,3.081A14.073,14.073,0,0,0,28.5,29.5c-3.258,0-5.3,1.1-7.672,3H17a.5.5,0,0,0-.5.5v4a.5.5,0,0,0,.5.5h4a.5.5,0,0,0,.5-.5V33.244c2.225-1.777,4.04-2.744,7-2.744a13.04,13.04,0,0,1,8,2.751V37a.5.5,0,0,0,.5.5h3.673a14.247,14.247,0,0,1,.827,6,16.027,16.027,0,0,1-2.774,9H35a.5.5,0,0,0-.5.5v4a.5.5,0,0,0,.5.5h4a.5.5,0,0,0,.5-.5V53.136a16.836,16.836,0,0,0,3-9.636,21.65,21.65,0,0,0-.332-4.625L46.5,43.207V45a.5.5,0,0,0,.5.5h2a.5.5,0,0,0,.5-.5V43A.5.5,0,0,0,49,42.5Zm-28.5-6h-3v-3h3Zm18,20h-3v-3h3Zm-8-30h-1v-1h1Zm10,10h-3v-3h3Zm8,8h-1v-1h1Z" style="fill:#5a5c5e"/><path d="M20,7H17a1,1,0,0,0-1,1v9h2V13h2a3,3,0,0,0,0-6Zm0,4H18V9h2a1,1,0,0,1,0,2Z" style="fill:#ff7d19"/><path d="M28,11H27a1,1,0,0,1,0-2c1.841,0,1.989.857,2,1h2c0-1.038-.836-3-4-3a3,3,0,0,0,0,6h1a1,1,0,0,1,0,2c-1.841,0-1.989-.857-2-1.029L25,14H24c0,1.038.836,3,4,3a3,3,0,0,0,0-6Z" style="fill:#ff7d19"/><path d="M7,8v8a1,1,0,0,0,1,1h5V15H9V13h4V11H9V9h4V7H8A1,1,0,0,0,7,8Z" style="fill:#ff7d19"/><path d="M20,9H18v1h1a1,1,0,0,1,1,1,1,1,0,0,0,0-2Z" style="fill:#2a1305"/><path d="M16,8a1,1,0,0,0-1,1v9h2V17H16Z" style="fill:#2a1305"/><path d="M18,13v1h1a2.993,2.993,0,0,0,2.554-1.446A2.976,2.976,0,0,1,20,13Z" style="fill:#2a1305"/><path d="M24.224,14.994,24,15H23c0,1.038.836,3,4,3a2.993,2.993,0,0,0,2.554-1.446A2.976,2.976,0,0,1,28,17C25.7,17,24.635,15.96,24.224,14.994Z" style="fill:#2a1305"/><path d="M27,9a1,1,0,0,0-1,1c1.841,0,1.989.857,2,1h2a2.63,2.63,0,0,0-.227-1H29C28.989,9.857,28.841,9,27,9Z" style="fill:#2a1305"/><path d="M26,14h1a1,1,0,0,1,1,1,1,1,0,0,0,0-2H27a2.984,2.984,0,0,1-2.554-4.554,2.983,2.983,0,0,0,1.332,5.532L26,13.971Z" style="fill:#2a1305"/><rect x="9" y="13" width="3" height="1" style="fill:#2a1305"/><path d="M7,16V8A1,1,0,0,0,6,9v8a1,1,0,0,0,1,1h5V17H8A1,1,0,0,1,7,16Z" style="fill:#2a1305"/><rect x="9" y="9" width="3" height="1" style="fill:#2a1305"/></g></svg>