<svg xmlns="http://www.w3.org/2000/svg" viewBox="0 0 64 64"><g id="_28-files_error" data-name="28-files error"><path d="M43,7,55,19H43Z" style="fill:#cdd1d6"/><path d="M55,19V63H9V7H43V19Z" style="fill:#f2f2f2"/><path d="M11,15V57a4,4,0,0,0,4,4H49a4,4,0,0,0,4-4V54.877C11,52.289,11,15,11,15Z" style="fill:#e2e2e2"/><rect x="44" y="19" width="11" height="2" style="fill:#e2e2e2"/><circle cx="12" cy="12" r="11" style="fill:#68727e"/><polygon points="46 35 46 52 38 44 34.58 47.42 27 39 18 52 18 35 46 35" style="fill:#2b8ae6"/><polygon points="46 52 46 59 45 59 34.58 47.42 38 44 46 52" style="fill:#00af73"/><polygon points="34.58 47.42 45 59 18 59 18 52 27 39 34.58 47.42" style="fill:#00c783"/><path d="M46,60H18a1,1,0,0,1-1-1V35a1,1,0,0,1,1-1H46a1,1,0,0,1,1,1V59A1,1,0,0,1,46,60ZM19,58H45V36H19Z" style="fill:#00c783"/><rect x="23" y="30" width="24" height="2" style="fill:#cdd1d6"/><rect x="23" y="26" width="24" height="2" style="fill:#cdd1d6"/><rect x="23" y="22" width="24" height="2" style="fill:#cdd1d6"/><rect x="17" y="30" width="2" height="2" style="fill:#cdd1d6"/><rect x="17" y="26" width="2" height="2" style="fill:#cdd1d6"/><polygon points="18.707 6.707 17.293 5.293 12 10.586 6.707 5.293 5.293 6.707 10.586 12 5.293 17.293 6.707 18.707 12 13.414 17.293 18.707 18.707 17.293 13.414 12 18.707 6.707" style="fill:#f2f2f2"/></g></svg>