<svg xmlns="http://www.w3.org/2000/svg" viewBox="0 0 64 64"><g id="_02-FLV" data-name="02-FLV"><path d="M43,1,55,13H43Z" style="fill:#eb0036"/><path d="M55,13V63H9V1H43V13Z" style="fill:#b8002a"/><path d="M11,9V57a4,4,0,0,0,4,4H49a4,4,0,0,0,4-4V54.877C11,52.289,11,9,11,9Z" style="fill:#9c0023"/><rect x="44" y="13" width="11" height="2" style="fill:#73001a"/><path d="M43,33V28s-8,0-11,6S28,47,21,48v6s10-1,13-11h6V38H36.108A7.691,7.691,0,0,1,43,33Z" style="fill:#f2f2f2"/><path d="M29.11,50.46A16.5,16.5,0,0,1,19,56V50a9.147,9.147,0,0,0,2-.5V54A16.854,16.854,0,0,0,29.11,50.46Z" style="fill:#73001a"/><path d="M38,43v2H33.25A14.294,14.294,0,0,0,34,43Z" style="fill:#73001a"/><path d="M32.84,32.64A9.712,9.712,0,0,0,32,34c-2.31,4.62-3.43,9.83-7.02,12.44C27.1,43.63,28.18,39.63,30,36A9.446,9.446,0,0,1,32.84,32.64Z" style="fill:#73001a"/><path d="M41,33.35V35a7.968,7.968,0,0,0-4.02,1.32A7.456,7.456,0,0,1,41,33.35Z" style="fill:#73001a"/><rect x="1" y="4" width="36" height="16" style="fill:#8a191c"/><rect x="9" y="20" width="26" height="3" style="fill:#73001a"/><path d="M8,8v9h2V13h4V11H10V9h4V7H9A1,1,0,0,0,8,8Z" style="fill:#f2f2f2"/><path d="M18,7H16v9a1,1,0,0,0,1,1h5V15H18Z" style="fill:#f2f2f2"/><path d="M26.2,15h-.4L24.024,7H22a.988.988,0,0,0,.024.217l2,9A1,1,0,0,0,25,17h2a1,1,0,0,0,.976-.783l2-9A.988.988,0,0,0,30,7H27.976Z" style="fill:#f2f2f2"/><rect x="10" y="9" width="3" height="1" style="fill:#73001a"/><path d="M8,8A1,1,0,0,0,7,9v9H9V17H8Z" style="fill:#73001a"/><rect x="10" y="13" width="3" height="1" style="fill:#73001a"/><path d="M16,16V8H15v9a1,1,0,0,0,1,1h5V17H17A1,1,0,0,1,16,16Z" style="fill:#73001a"/><path d="M25,17a1,1,0,0,1-.976-.783L22.2,8H21a.988.988,0,0,0,.024.217l2,9A1,1,0,0,0,24,18h2a1,1,0,0,0,.976-.783L27.025,17c-.009,0-.016,0-.025,0Z" style="fill:#73001a"/><polygon points="26.198 15 27.753 8 26.976 8 25.611 14.14 25.802 15 26.198 15" style="fill:#73001a"/></g></svg>