<svg xmlns="http://www.w3.org/2000/svg" viewBox="0 0 64 64"><g id="_07-GIF" data-name="07-GIF"><path d="M43,1,55,13H43Z" style="fill:#cdd1d6"/><path d="M55,13V63H9V1H43V13Z" style="fill:#f2f2f2"/><path d="M11,9V57a4,4,0,0,0,4,4H49a4,4,0,0,0,4-4V54.877C11,52.289,11,9,11,9Z" style="fill:#e2e2e2"/><rect x="44" y="13" width="11" height="2" style="fill:#e2e2e2"/><path d="M26.712,45C32.806,50.249,41.261,54.153,53,54.877V57a4,4,0,0,1-4,4H15a4,4,0,0,1-4-4V45H9V63H55V45Z" style="fill:#9d5caa"/><path d="M11,57a4,4,0,0,0,4,4H49a4,4,0,0,0,4-4V54.877C41.261,54.153,32.806,50.249,26.712,45H11Z" style="fill:#90449e"/><polygon points="18 17 18 34 27 21 34.58 29.42 45 41 46 41 46 34 46 17 18 17" style="fill:#f7f8f9"/><polygon points="34.58 29.42 45 41 18 41 18 34 27 21 34.58 29.42" style="fill:#9d5caa"/><polygon points="18 34 18 20 15 20 15 37 15 44 42 44 43 44 43 41 18 41 18 34" style="fill:#cdd1d6"/><path d="M46,42H18a1,1,0,0,1-1-1V17a1,1,0,0,1,1-1H46a1,1,0,0,1,1,1V41A1,1,0,0,1,46,42ZM19,40H45V18H19Z" style="fill:#90449e"/><rect x="9" y="44" width="46" height="2" style="fill:#7e3c8a"/><polygon points="38 20 43 24 38 28 38 20" style="fill:#9f66aa"/><path d="M27,53H24v2h2v2H23V51h4V49H23a2,2,0,0,0-2,2v6a2,2,0,0,0,2,2h3a2,2,0,0,0,2-2V54A1,1,0,0,0,27,53Z" style="fill:#f2f2f2"/><rect x="31" y="49" width="2" height="10" style="fill:#f2f2f2"/><path d="M42,51V49H37a1,1,0,0,0-1,1v9h2V55h4V53H38V51Z" style="fill:#f2f2f2"/></g></svg>