<svg xmlns="http://www.w3.org/2000/svg" viewBox="0 0 64 64"><g id="_16-HTML" data-name="16-HTML"><path d="M43,1,55,13H43Z" style="fill:#ffaf36"/><path d="M55,13V63H9V1H43V13Z" style="fill:#ff6d00"/><path d="M11,9V57a4,4,0,0,0,4,4H49a4,4,0,0,0,4-4V54.877C11,52.289,11,9,11,9Z" style="fill:#f54e00"/><rect x="44" y="13" width="11" height="2" style="fill:#f54e00"/><rect x="1" y="4" width="36" height="16" style="fill:#f54100"/><rect x="9" y="20" width="26" height="3" style="fill:#d63900"/><path d="M31,15V7H29v9a1,1,0,0,0,1,1h4V15Z" style="fill:#fff"/><polygon points="9 11 6 11 6 7 4 7 4 17 6 17 6 13 9 13 9 17 11 17 11 7 9 7 9 11" style="fill:#fff"/><polygon points="12 9 14 9 14 17 16 17 16 9 18 9 18 7 12 7 12 9" style="fill:#fff"/><path d="M26.2,7.021a.993.993,0,0,0-1.12.585L23,12.461,20.919,7.606A1,1,0,0,0,19,8v9h2V12.872l1.081,2.522a1,1,0,0,0,1.838,0L25,12.872V17h2V8A1,1,0,0,0,26.2,7.021Z" style="fill:#fff"/><polygon points="21 50 13 41 21 32 25 32 17 41 25 50 21 50" style="fill:#fff"/><polygon points="43 50 51 41 43 32 39 32 47 41 39 50 43 50" style="fill:#fff"/><polygon points="28 50 33 32 36 32 31 50 28 50" style="fill:#fff"/><polygon points="13 41 19.222 34 19 34 11 43 19 52 23 52 21.222 50 21 50 13 41" style="fill:#d63900"/><polygon points="47 41 40.778 34 37 34 45 43 37 52 41 52 42.778 50 39 50 47 41" style="fill:#d63900"/><polygon points="32.444 34 31 34 26 52 29 52 29.556 50 28 50 32.444 34" style="fill:#d63900"/><path d="M29,16V8H28v9a1,1,0,0,0,1,1h4V17H30A1,1,0,0,1,29,16Z" style="fill:#d63900"/><rect x="8" y="8" width="1" height="3" style="fill:#d63900"/><polygon points="4 8 3 8 3 18 5 18 5 17 4 17 4 8" style="fill:#d63900"/><polygon points="9 13 6 13 6 14 8 14 8 18 10 18 10 17 9 17 9 13" style="fill:#d63900"/><rect x="16" y="9" width="1" height="1" style="fill:#d63900"/><polygon points="14 9 12 9 12 8 11 8 11 10 13 10 13 18 15 18 15 17 14 17 14 9" style="fill:#d63900"/><path d="M19,8.014a.9.9,0,0,0-.2.007A1,1,0,0,0,18,9v9h2V17H19Z" style="fill:#d63900"/><path d="M24.908,8.01a1,1,0,0,0-.827.6L22.714,11.8l.286.666Z" style="fill:#d63900"/><path d="M22.081,15.394,21,12.872V16.2l.081.189a1,1,0,0,0,1.838,0l.175-.408c-.032,0-.062.014-.094.014A1,1,0,0,1,22.081,15.394Z" style="fill:#d63900"/><polygon points="25 12.872 24 15.205 24 18 26 18 26 17 25 17 25 12.872" style="fill:#d63900"/></g></svg>