<svg xmlns="http://www.w3.org/2000/svg" viewBox="0 0 64 64"><g id="_12-INDD" data-name="12-INDD"><path d="M43,1,55,13H43Z" style="fill:#ff4ea1"/><path d="M55,13V63H9V1H43V13Z" style="fill:#400519"/><path d="M11,9V57a4,4,0,0,0,4,4H49a4,4,0,0,0,4-4V54.877C11,52.289,11,9,11,9Z" style="fill:#320514"/><rect x="44" y="13" width="11" height="2" style="fill:#1c0a09"/><rect x="1" y="4" width="36" height="16" style="fill:#ff4ea1"/><rect x="9" y="20" width="26" height="3" style="fill:#1c0a09"/><rect x="21.5" y="29" width="4" height="24" style="fill:#ff3e8e"/><path d="M38.5,29v6h-1c-6,0-9,4.029-9,9s3.029,9,8,9a12.677,12.677,0,0,0,6-2V29Zm0,20h-1a5,5,0,0,1,0-10h1Z" style="fill:#ff3e8e"/><path d="M21.333,17H20a1,1,0,0,1-1-1V8a1,1,0,0,1,1-1h1.333C23.39,7,25,9.2,25,12S23.39,17,21.333,17ZM21,15h.333C22.121,15,23,13.768,23,12s-.879-3-1.667-3H21Z" style="fill:#25010f"/><path d="M28.333,17H27a1,1,0,0,1-1-1V8a1,1,0,0,1,1-1h1.333C30.39,7,32,9.2,32,12S30.39,17,28.333,17ZM28,15h.333C29.121,15,30,13.768,30,12s-.879-3-1.667-3H28Z" style="fill:#25010f"/><path d="M16,17a1,1,0,0,1-.895-.553L13,12.236V17H11V8A1,1,0,0,1,12.9,7.553L15,11.764V7h2v9a1,1,0,0,1-1,1Z" style="fill:#25010f"/><rect x="7" y="7" width="2" height="10" style="fill:#25010f"/><path d="M23,12c0-1.768-.879-3-1.667-3H21v1.289A3.593,3.593,0,0,1,22,13a4.337,4.337,0,0,1-.435,1.956C22.284,14.745,23,13.6,23,12Z" style="fill:#e63e8d"/><path d="M20,17a1,1,0,0,1-1-1V8a1,1,0,0,0-1,1v8a1,1,0,0,0,1,1h1.333A3.278,3.278,0,0,0,23,16.447,2.93,2.93,0,0,1,21.333,17Z" style="fill:#e63e8d"/><path d="M27,17a1,1,0,0,1-1-1V8a1,1,0,0,0-1,1v8a1,1,0,0,0,1,1h1.333A3.278,3.278,0,0,0,30,16.447,2.93,2.93,0,0,1,28.333,17Z" style="fill:#e63e8d"/><path d="M30,12c0-1.768-.879-3-1.667-3H28v1.289A3.593,3.593,0,0,1,29,13a4.337,4.337,0,0,1-.435,1.956C29.284,14.745,30,13.6,30,12Z" style="fill:#e63e8d"/><path d="M11,8.012a.929.929,0,0,0-.229.015A1,1,0,0,0,10,9v9h2V17H11Z" style="fill:#e63e8d"/><polygon points="15 8 14 8 14 9.764 15 11.764 15 8" style="fill:#e63e8d"/><path d="M15.105,16.447,13,12.236v3l1.105,2.211A1,1,0,0,0,16,17,1,1,0,0,1,15.105,16.447Z" style="fill:#e63e8d"/><polygon points="7 8 6 8 6 18 8 18 8 17 7 17 7 8" style="fill:#e63e8d"/><polygon points="21.5 31 19.5 31 19.5 55 23.5 55 23.5 53 21.5 53 21.5 31" style="fill:#1c0a09"/><path d="M28.5,44a9.643,9.643,0,0,1,1.573-5.5A8.725,8.725,0,0,0,26.5,46c0,4.971,3.029,9,8,9a12.677,12.677,0,0,0,6-2v-.947a10.389,10.389,0,0,1-4,.947C31.529,53,28.5,48.971,28.5,44Z" style="fill:#1c0a09"/><path d="M38.5,35V31h-2v4.043c.324-.026.656-.043,1-.043Z" style="fill:#1c0a09"/><path d="M33.125,41.625A4.95,4.95,0,0,1,35.5,41h1v7.9a4.988,4.988,0,0,0,1,.1h1V39h-1A4.981,4.981,0,0,0,33.125,41.625Z" style="fill:#1c0a09"/></g></svg>