<svg xmlns="http://www.w3.org/2000/svg" viewBox="0 0 64 64"><g id="_23-ISO" data-name="23-ISO"><path d="M43,1,55,13H43Z" style="fill:#dee2e8"/><path d="M55,13V63H9V1H43V13Z" style="fill:#68727e"/><path d="M11,9V57a4,4,0,0,0,4,4H49a4,4,0,0,0,4-4V54.877C11,52.289,11,9,11,9Z" style="fill:#4c535c"/><rect x="44" y="13" width="11" height="2" style="fill:#4c535c"/><rect x="1" y="4" width="36" height="16" style="fill:#dee2e8"/><rect x="9" y="20" width="26" height="3" style="fill:#4c535c"/><path d="M34.18,38.65a3.893,3.893,0,0,1,1.19,1.2A3.956,3.956,0,0,1,36,42a4,4,0,0,1-6.18,3.35,3.893,3.893,0,0,1-1.19-1.2A3.956,3.956,0,0,1,28,42a4,4,0,0,1,6.18-3.35Z" style="fill:#68727e"/><path d="M29.82,45.35l-4.48,8.97a14.01,14.01,0,0,1-6.04-6.44l9.33-3.73A3.893,3.893,0,0,0,29.82,45.35Z" style="fill:#fff"/><path d="M44.7,36.12l-9.33,3.73a3.893,3.893,0,0,0-1.19-1.2l4.48-8.97A14.01,14.01,0,0,1,44.7,36.12Z" style="fill:#fff"/><path d="M38.66,29.68l-4.48,8.97a4,4,0,0,0-5.55,5.5L19.3,47.88A13.79,13.79,0,0,1,18,42,14.008,14.008,0,0,1,38.66,29.68Z" style="fill:#dee2e8"/><path d="M44.7,36.12A13.79,13.79,0,0,1,46,42,14.008,14.008,0,0,1,25.34,54.32l4.48-8.97a4,4,0,0,0,5.55-5.5Z" style="fill:#dee2e8"/><path d="M18,17c-3.164,0-4-1.962-4-3h1l1-.028c.012.171.16,1.028,2,1.028a1,1,0,0,0,1-1,.959.959,0,0,0-.287-.693A.977.977,0,0,0,18,13H17a3,3,0,0,1-3-3,3.015,3.015,0,0,1,3-3c3.164,0,4,1.962,4,3H19c-.011-.143-.159-1-2-1a.959.959,0,0,0-.693.287A.977.977,0,0,0,16,10a1,1,0,0,0,1,1h1a3.015,3.015,0,0,1,3,3A3,3,0,0,1,18,17Z" style="fill:#4c535c"/><rect x="10" y="7" width="2" height="10" style="fill:#4c535c"/><path d="M27,17a4,4,0,0,1-4-4V11a4,4,0,0,1,8,0v2A4,4,0,0,1,27,17Zm0-8a2,2,0,0,0-2,2v2a2,2,0,0,0,4,0V11a2,2,0,0,0-2-2Z" style="fill:#4c535c"/><path d="M32,47a4.991,4.991,0,0,1-2.726-.812A5,5,0,0,1,27,42a5,5,0,0,1,7.726-4.188A5,5,0,0,1,37,42,5.006,5.006,0,0,1,32,47Zm0-8a3,3,0,0,0-3,3,2.965,2.965,0,0,0,.471,1.609,2.9,2.9,0,0,0,.891.9,3,3,0,0,0,4.167-4.118l-.007-.011a2.883,2.883,0,0,0-.884-.889A2.993,2.993,0,0,0,32,39Z" style="fill:#4c535c"/><path d="M19.56,16.56A3.012,3.012,0,0,1,17,18c-3.16,0-4-1.96-4-3h1.22c.41.96,1.48,2,3.78,2A2.981,2.981,0,0,0,19.56,16.56Z" style="fill:#b5b8ba"/><path d="M19,14a1,1,0,0,1-1,1,.928.928,0,0,0-.29-.69A.949.949,0,0,0,17,14H16v-.03l-.3.01h-.01A3.01,3.01,0,0,1,13,11a2.971,2.971,0,0,1,.89-2.13,2.933,2.933,0,0,1,.56-.44A2.992,2.992,0,0,0,17,13h1a.949.949,0,0,1,.71.31A.928.928,0,0,1,19,14Z" style="fill:#b5b8ba"/><path d="M20,11H18c-.01-.14-.16-1-2-1a.949.949,0,0,1,.31-.71A.928.928,0,0,1,17,9c1.84,0,1.99.86,2,1h.78A2.522,2.522,0,0,1,20,11Z" style="fill:#b5b8ba"/><polygon points="11 17 11 18 9 18 9 8 10 8 10 17 11 17" style="fill:#b5b8ba"/><path d="M29.28,16.28A4,4,0,0,1,22,14V12a3.981,3.981,0,0,1,1.72-3.28A4.009,4.009,0,0,0,23,11v2a3.993,3.993,0,0,0,6.28,3.28Z" style="fill:#b5b8ba"/><path d="M29,11v2a2,2,0,0,1-1.18,1.82A1.891,1.891,0,0,0,28,14V12a2.015,2.015,0,0,0-2-2,1.891,1.891,0,0,0-.82.18A2,2,0,0,1,29,11Z" style="fill:#b5b8ba"/><path d="M25.34,54.32a14.01,14.01,0,0,1-6.04-6.44,13.931,13.931,0,0,1,1.426-14.154A13.968,13.968,0,0,0,15,45a13.79,13.79,0,0,0,1.3,5.88,13.978,13.978,0,0,0,23.974,2.394A13.972,13.972,0,0,1,25.34,54.32Z" style="fill:#3d434a"/></g></svg>