<svg xmlns="http://www.w3.org/2000/svg" viewBox="0 0 64 64"><g id="_17-JS" data-name="17-JS"><path d="M43,1,55,13H43Z" style="fill:#ffed9e"/><path d="M55,13V63H9V1H43V13Z" style="fill:#fdd734"/><path d="M11,9V57a4,4,0,0,0,4,4H49a4,4,0,0,0,4-4V54.877C11,52.289,11,9,11,9Z" style="fill:#ffbf00"/><rect x="44" y="13" width="11" height="2" style="fill:#ffbf00"/><rect x="1" y="4" width="36" height="16" style="fill:#ffbf00"/><rect x="9" y="20" width="26" height="3" style="fill:#e89e00"/><path d="M22,17c-3.164,0-4-1.962-4-3h1l1-.029c.012.172.16,1.029,2,1.029a1,1,0,0,0,0-2H21a3,3,0,0,1,0-6c3.164,0,4,1.962,4,3H23c-.011-.143-.159-1-2-1a1,1,0,0,0,0,2h1a3,3,0,0,1,0,6Z" style="fill:#fff"/><path d="M14,17a3,3,0,0,1-3-3V13h2v1a1,1,0,0,0,2,0V7h2v7A3,3,0,0,1,14,17Z" style="fill:#fff"/><path d="M25,52H24a5.006,5.006,0,0,1-5-5V44c-.043-.131-.256-.253-.41-.343a5.83,5.83,0,0,1-1.3-.95,1,1,0,0,1,0-1.414,5.83,5.83,0,0,1,1.3-.95A2.523,2.523,0,0,0,19,40.074L19,37a5.006,5.006,0,0,1,5-5h1v2H24a3,3,0,0,0-3,3v3a2.191,2.191,0,0,1-1.281,2A2.191,2.191,0,0,1,21,44v3a3,3,0,0,0,3,3h1Z" style="fill:#fff"/><path d="M40,52H39V50h1a3,3,0,0,0,3-3V44a2.191,2.191,0,0,1,1.281-2A2.191,2.191,0,0,1,43,40V37a3,3,0,0,0-3-3H39V32h1a5.006,5.006,0,0,1,5,5v3c.043.131.256.253.41.343a5.83,5.83,0,0,1,1.3.95,1,1,0,0,1,0,1.414,5.83,5.83,0,0,1-1.3.95,2.523,2.523,0,0,0-.413.269L45,47A5.006,5.006,0,0,1,40,52Z" style="fill:#fff"/><circle cx="32" cy="37" r="2" style="fill:#fff"/><polygon points="30 41 33 41 30 48 28 48 30 41" style="fill:#fff"/><path d="M23.56,16.56A3.012,3.012,0,0,1,21,18c-3.16,0-4-1.96-4-3h1.22c.41.96,1.48,2,3.78,2A2.981,2.981,0,0,0,23.56,16.56Z" style="fill:#e89e00"/><path d="M23,14a1,1,0,0,1-1,1,1,1,0,0,0-1-1H20v-.03l-.3.01h-.01a3,3,0,0,1-1.25-5.54A3,3,0,0,0,21,13h1A1,1,0,0,1,23,14Z" style="fill:#e89e00"/><path d="M24,11H22c-.01-.14-.16-1-2-1a1,1,0,0,1,1-1c1.84,0,1.99.86,2,1h.78A2.522,2.522,0,0,1,24,11Z" style="fill:#e89e00"/><path d="M15,8v6a1,1,0,0,1-1,1V8Z" style="fill:#e89e00"/><path d="M15.56,16.56A3,3,0,0,1,10,15V14h1a3,3,0,0,0,4.56,2.56Z" style="fill:#e89e00"/><path d="M43,51a5.01,5.01,0,0,1-4,2H38V51h1v1h1A4.941,4.941,0,0,0,43,51Z" style="fill:#e89e00"/><path d="M43.21,43.04A2.1,2.1,0,0,0,43,44v3a3.012,3.012,0,0,1-1.44,2.56A2.981,2.981,0,0,0,42,48V45A2.159,2.159,0,0,1,43.21,43.04Z" style="fill:#e89e00"/><path d="M45.94,43.33a.886.886,0,0,1-.23.38,5.151,5.151,0,0,1-.71.59v-.37a2.211,2.211,0,0,1,.41-.27A4.873,4.873,0,0,0,45.94,43.33Z" style="fill:#e89e00"/><path d="M44.28,42a2.6,2.6,0,0,0-1.04.98A2.188,2.188,0,0,1,42,41V38a3.009,3.009,0,0,0-3-3H38V33h1v1h1a3.009,3.009,0,0,1,3,3v3A2.194,2.194,0,0,0,44.28,42Z" style="fill:#e89e00"/><path d="M24,52v1H23a5,5,0,0,1-5-5V45c-.04-.13-.26-.25-.41-.34a6.051,6.051,0,0,1-1.3-.95,1.008,1.008,0,0,1,0-1.42,5.5,5.5,0,0,1,.77-.62.988.988,0,0,0,.23,1.04,6.051,6.051,0,0,0,1.3.95c.15.09.37.21.41.34v3A5,5,0,0,0,24,52Z" style="fill:#e89e00"/><path d="M20,34a4.941,4.941,0,0,0-1,3v3.07a2.211,2.211,0,0,1-.41.27c-.17.1-.37.22-.59.36V38A5.01,5.01,0,0,1,20,34Z" style="fill:#e89e00"/><path d="M24,34v1H23a2.981,2.981,0,0,0-1.56.44A3.012,3.012,0,0,1,24,34Z" style="fill:#e89e00"/><path d="M32.82,38.82a2,2,0,1,1-2.64-2.64A1.891,1.891,0,0,0,30,37a2.006,2.006,0,0,0,2,2A1.891,1.891,0,0,0,32.82,38.82Z" style="fill:#e89e00"/><polygon points="28 48 29.43 48 29 49 27 49 29 42 29.71 42 28 48" style="fill:#e89e00"/></g></svg>