<svg xmlns="http://www.w3.org/2000/svg" viewBox="0 0 64 64"><g id="_20-MP3" data-name="20-MP3"><path d="M43,1,55,13H43Z" style="fill:#eb0036"/><path d="M55,13V63H9V1H43V13Z" style="fill:#b8002a"/><path d="M11,9V57a4,4,0,0,0,4,4H49a4,4,0,0,0,4-4V54.877C11,52.289,11,9,11,9Z" style="fill:#9c0023"/><rect x="44" y="13" width="11" height="2" style="fill:#73001a"/><rect x="1" y="4" width="36" height="16" style="fill:#f2f2f2"/><rect x="9" y="20" width="26" height="3" style="fill:#73001a"/><circle cx="38" cy="46" r="4" style="fill:#cb3234"/><circle cx="22" cy="50" r="4" style="fill:#cb3234"/><path d="M42.639,27.23a1,1,0,0,0-.823-.212l-16,3A1,1,0,0,0,25,31V46.026A4.948,4.948,0,0,0,22,45a5,5,0,1,0,5,5V36.83l14-2.625v7.821A4.948,4.948,0,0,0,38,41a5,5,0,1,0,5,5V28A1,1,0,0,0,42.639,27.23ZM22,53a3,3,0,1,1,3-3A3,3,0,0,1,22,53Zm5-18.2V31.83l14-2.625v2.966ZM38,49a3,3,0,1,1,3-3A3,3,0,0,1,38,49Z" style="fill:#f2f2f2"/><path d="M15,17H13V12.872l-1.081,2.522a1,1,0,0,1-1.838,0L9,12.872V17H7V8a1,1,0,0,1,1.919-.394L11,12.461l2.081-4.855A1,1,0,0,1,15,8Z" style="fill:#b8002a"/><path d="M19,17H17V8a1,1,0,0,1,1-1h3a3,3,0,0,1,0,6H19Zm0-6h2a1,1,0,0,0,0-2H19Z" style="fill:#b8002a"/><path d="M27.5,17H25V15h2.5a1.5,1.5,0,0,0,0-3H26a1,1,0,0,1-.6-1.8L27,9H25V7h5a1,1,0,0,1,.6,1.8l-1.888,1.416A3.5,3.5,0,0,1,27.5,17Z" style="fill:#b8002a"/><path d="M10.081,15.394,9,12.872V16.2l.081.189a1,1,0,0,0,1.838,0l.175-.408c-.032,0-.062.014-.094.014A1,1,0,0,1,10.081,15.394Z" style="fill:#e2e2e2"/><polygon points="13 12.872 12 15.205 12 18 14 18 14 17 13 17 13 12.872" style="fill:#e2e2e2"/><path d="M7,8.015a.968.968,0,0,0-.2.006A1,1,0,0,0,6,9v9H8V17H7Z" style="fill:#e2e2e2"/><path d="M12.907,8.011a1,1,0,0,0-.826.6L10.714,11.8l.286.666Z" style="fill:#e2e2e2"/><path d="M21,9H19v1h1a1,1,0,0,1,1,1,1,1,0,0,0,0-2Z" style="fill:#e2e2e2"/><path d="M17,8a1,1,0,0,0-1,1v9h2V17H17Z" style="fill:#e2e2e2"/><path d="M19,13v1h1a2.993,2.993,0,0,0,2.554-1.446A2.976,2.976,0,0,1,21,13Z" style="fill:#e2e2e2"/><path d="M29,13.5A1.5,1.5,0,0,0,27.5,12H26a1,1,0,0,1-.957-1.282L24.4,11.2A1,1,0,0,0,25,13h1.5a1.48,1.48,0,0,1,1.43,1.93A1.5,1.5,0,0,0,29,13.5Z" style="fill:#e2e2e2"/><path d="M25,17V16H24v2h2.5a3.5,3.5,0,0,0,2.92-1.58A3.47,3.47,0,0,1,27.5,17Z" style="fill:#e2e2e2"/><polygon points="25 9 25 8 24 8 24 10 25.667 10 27 9 25 9" style="fill:#e2e2e2"/><path d="M27,33.455l12-2.25v1.341l2-.375V30a1,1,0,0,0-.333-.733L27,31.83Z" style="fill:#73001a"/><path d="M25,38.83V31.8l-1.184.222A1,1,0,0,0,23,33V45.116a5.034,5.034,0,0,1,2,.91Z" style="fill:#73001a"/><path d="M23,47.184v.842a5.043,5.043,0,0,0-1.881-.879,2.99,2.99,0,0,0-1.978,1.994A2.943,2.943,0,0,1,20,49a3,3,0,0,1,3,3,2.943,2.943,0,0,1-.141.859A2.981,2.981,0,0,0,23,47.184Z" style="fill:#73001a"/><path d="M20.864,54.858A2.944,2.944,0,0,1,20,55a3,3,0,0,1-3-3,2.944,2.944,0,0,1,.142-.864,4.743,4.743,0,0,1,.485-3.509,4.982,4.982,0,1,0,6.746,6.746,4.743,4.743,0,0,1-3.509.485Z" style="fill:#73001a"/><path d="M39,43.184v.842a5.043,5.043,0,0,0-1.881-.879,2.99,2.99,0,0,0-1.978,1.994A2.943,2.943,0,0,1,36,45a3,3,0,0,1,3,3,2.943,2.943,0,0,1-.141.859A2.981,2.981,0,0,0,39,43.184Z" style="fill:#73001a"/><path d="M36.864,50.858A2.944,2.944,0,0,1,36,51a3,3,0,0,1-3-3,2.944,2.944,0,0,1,.142-.864,4.743,4.743,0,0,1,.485-3.509,4.982,4.982,0,1,0,6.746,6.746,4.743,4.743,0,0,1-3.509.485Z" style="fill:#73001a"/><path d="M41,35v-.8L27,36.83v1.625l12-2.25v4.911a5.034,5.034,0,0,1,2,.91Z" style="fill:#73001a"/></g></svg>