<svg xmlns="http://www.w3.org/2000/svg" viewBox="0 0 64 64"><g id="_21-MP4" data-name="21-MP4"><path d="M43,1,55,13H43Z" style="fill:#eb0036"/><path d="M55,13V63H9V1H43V13Z" style="fill:#b8002a"/><path d="M11,9V57a4,4,0,0,0,4,4H49a4,4,0,0,0,4-4V54.877C11,52.289,11,9,11,9Z" style="fill:#9c0023"/><rect x="44" y="13" width="11" height="2" style="fill:#73001a"/><rect x="1" y="4" width="36" height="16" style="fill:#8a191c"/><rect x="9" y="20" width="26" height="3" style="fill:#73001a"/><polygon points="41 42 27 51 27 33 41 42" style="fill:#b8002a"/><path d="M32,28A14,14,0,1,1,18,42,14,14,0,0,1,32,28ZM27,51l14-9L27,33Z" style="fill:#f2f2f2"/><path d="M14.2,7.021a1,1,0,0,0-1.12.585L11,12.461,8.919,7.606A1,1,0,0,0,7,8v9H9V12.872l1.081,2.522a1,1,0,0,0,1.838,0L13,12.872V17h2V8A1,1,0,0,0,14.2,7.021Z" style="fill:#f2f2f2"/><path d="M21,7H18a1,1,0,0,0-1,1v9h2V13h2a3.015,3.015,0,0,0,3-3A3,3,0,0,0,21,7Zm.694,3.713A.965.965,0,0,1,21,11H19V9h2a1,1,0,0,1,1,1A.978.978,0,0,1,21.694,10.713Z" style="fill:#f2f2f2"/><path d="M31,12H30V8a1,1,0,0,0-1.781-.625l-4,5A1,1,0,0,0,25,14h3v3h2V14h1Zm-3-1.149V12h-.919Z" style="fill:#f2f2f2"/><path d="M18,42a13.916,13.916,0,0,1,2.726-8.274A13.987,13.987,0,1,0,40.274,53.274,13.98,13.98,0,0,1,18,42Z" style="fill:#73001a"/><polygon points="13 12.872 12 15.205 12 18 14 18 14 17 13 17 13 12.872" style="fill:#73001a"/><path d="M7,8.015a.968.968,0,0,0-.2.006A1,1,0,0,0,6,9v9H8V17H7Z" style="fill:#73001a"/><path d="M10.081,15.394,9,12.872V16.2l.081.189a1,1,0,0,0,1.838,0l.175-.408c-.032,0-.062.014-.094.014A1,1,0,0,1,10.081,15.394Z" style="fill:#73001a"/><path d="M12.907,8.011a1,1,0,0,0-.826.6L10.714,11.8l.286.666Z" style="fill:#73001a"/><path d="M21,11a.965.965,0,0,0,.694-.287A.978.978,0,0,0,22,10a1,1,0,0,0-1-1H19v1h1A1,1,0,0,1,21,11Z" style="fill:#73001a"/><path d="M21,13H19v1h1a2.922,2.922,0,0,0,2.108-.874,2.893,2.893,0,0,0,.443-.567A2.958,2.958,0,0,1,21,13Z" style="fill:#73001a"/><path d="M17,12V8a1,1,0,0,0-1,1v9h2V17H17Z" style="fill:#73001a"/><polygon points="28 12 28 10.851 27.081 12 28 12" style="fill:#73001a"/><path d="M28,14H25a1,1,0,0,1-.781-1.625l3.449-4.311a.989.989,0,0,0-.449.311l-4,5A1,1,0,0,0,24,15h3v3h2V17H28Z" style="fill:#73001a"/><polygon points="27 51 27 35.643 26 35 26 53 40 44 38.944 43.321 27 51" style="fill:#e2e2e2"/></g></svg>