<svg xmlns="http://www.w3.org/2000/svg" viewBox="0 0 64 64"><g id="_30-Can_t_Preview" data-name="30-Can&apos;t Preview"><path d="M43,7,55,19H43Z" style="fill:#cdd1d6"/><path d="M55,19V63H9V7H43V19Z" style="fill:#f2f2f2"/><path d="M11,15V57a4,4,0,0,0,4,4H49a4,4,0,0,0,4-4V54.877C11,52.289,11,15,11,15Z" style="fill:#e2e2e2"/><rect x="44" y="19" width="11" height="2" style="fill:#e2e2e2"/><circle cx="12" cy="12" r="11" style="fill:#f7f8f9"/><polygon points="46 35 46 52 38 44 34.58 47.42 27 39 18 52 18 35 46 35" style="fill:#2b8ae6"/><polygon points="46 52 46 59 45 59 34.58 47.42 38 44 46 52" style="fill:#00af73"/><polygon points="34.58 47.42 45 59 18 59 18 52 27 39 34.58 47.42" style="fill:#00c783"/><path d="M46,60H18a1,1,0,0,1-1-1V35a1,1,0,0,1,1-1H46a1,1,0,0,1,1,1V59A1,1,0,0,1,46,60ZM19,58H45V36H19Z" style="fill:#00c783"/><rect x="23" y="30" width="24" height="2" style="fill:#cdd1d6"/><rect x="23" y="26" width="24" height="2" style="fill:#cdd1d6"/><rect x="23" y="22" width="24" height="2" style="fill:#cdd1d6"/><rect x="17" y="30" width="2" height="2" style="fill:#cdd1d6"/><rect x="17" y="26" width="2" height="2" style="fill:#cdd1d6"/><path d="M19,12s-3.13,4-7,4-7-4-7-4,3.13-4,7-4a3,3,0,1,0,3,3,3,3,0,0,0-3-3C15.87,8,19,12,19,12Z" style="fill:#f2f2f2"/><circle cx="12" cy="11" r="3" style="fill:#344d76"/><path d="M19.394,11.691C19.26,11.521,16.067,7.5,12,7.5s-7.26,4.021-7.394,4.191a.5.5,0,0,0,0,.618C4.74,12.479,7.933,16.5,12,16.5s7.26-4.021,7.394-4.191A.5.5,0,0,0,19.394,11.691ZM14.5,11A2.5,2.5,0,1,1,12,8.5,2.5,2.5,0,0,1,14.5,11ZM12,15.5c-2.966,0-5.535-2.593-6.344-3.5A12.774,12.774,0,0,1,8.93,9.354,3.462,3.462,0,0,0,8.5,11a3.5,3.5,0,0,0,7,0,3.462,3.462,0,0,0-.43-1.646A12.774,12.774,0,0,1,18.344,12C17.535,12.907,14.966,15.5,12,15.5Z" style="fill:#cdd1d6"/><path d="M12,0A12,12,0,1,0,24,12,12.013,12.013,0,0,0,12,0Zm0,2a9.935,9.935,0,0,1,5.752,1.834L3.834,17.752A9.985,9.985,0,0,1,12,2Zm0,20a9.957,9.957,0,0,1-6.851-2.735L19.265,5.149A9.985,9.985,0,0,1,12,22Z" style="fill:#68727e"/></g></svg>