<svg xmlns="http://www.w3.org/2000/svg" viewBox="0 0 64 64"><g id="_03-PDF" data-name="03-PDF"><path d="M43,1,55,13H43Z" style="fill:#eb0036"/><path d="M55,13V63H9V1H43V13Z" style="fill:#b8002a"/><path d="M11,9V57a4,4,0,0,0,4,4H49a4,4,0,0,0,4-4V54.877C11,52.289,11,9,11,9Z" style="fill:#9c0023"/><rect x="44" y="13" width="11" height="2" style="fill:#73001a"/><rect x="1" y="4" width="36" height="16" style="fill:#8a191c"/><rect x="9" y="20" width="26" height="3" style="fill:#73001a"/><path d="M42.3,43.442a19.767,19.767,0,0,0-6.329-.875,23.475,23.475,0,0,1-3.788-4.129A24.321,24.321,0,0,0,34,31c0-3.32-1.2-4-3-4s-2.68,2.03-2.891,3.769a12.155,12.155,0,0,0,1.9,8,58.992,58.992,0,0,1-2.494,5.365,19.222,19.222,0,0,0-8.725,6.258c-.218.344-1.271,2.133-.531,3.48A2.432,2.432,0,0,0,20.612,55c2.327,0,5.559-4.231,8.265-9.282a23.5,23.5,0,0,1,6.373-1.126,47.543,47.543,0,0,0,4.384,3.244C41.7,49.2,43.3,49.6,44.527,49.055a2.588,2.588,0,0,0,1.462-1.9A1.084,1.084,0,0,0,46,47C46,45.511,44.686,44.247,42.3,43.442ZM20.612,53a1.256,1.256,0,0,1-.6-.095h0a2.46,2.46,0,0,1,.419-1.375,16.274,16.274,0,0,1,5.5-4.577C23.842,50.435,21.745,53,20.612,53Zm9.482-21.99C30.241,29.8,30.737,29,31,29c.707,0,1,0,1,2a18.015,18.015,0,0,1-1.073,5.275A9.01,9.01,0,0,1,30.094,31.01Zm-.008,12.325c.434-.9.845-1.814,1.227-2.717a24.532,24.532,0,0,0,1.919,2.135A25.578,25.578,0,0,0,30.086,43.335Zm13.617,3.9c-.2.08-.988.243-2.967-1.065q-1.123-.743-2.1-1.459a14.788,14.788,0,0,1,3.021.629c1.5.5,2.236,1.149,2.329,1.576A.537.537,0,0,1,43.7,47.232Z" style="fill:#f2f2f2"/><path d="M30.011,38.766a12.155,12.155,0,0,1-1.9-8,6.191,6.191,0,0,1,.817-2.473,4.662,4.662,0,0,0-1.817,3.473,12.155,12.155,0,0,0,1.9,8c-.619,1.538-1.353,3.1-2.126,4.621.211-.086.419-.177.632-.256A58.992,58.992,0,0,0,30.011,38.766Z" style="fill:#73001a"/><path d="M21.316,50.5a16.893,16.893,0,0,1,3.616-2.55,31.893,31.893,0,0,1-3.112,4.434,23.66,23.66,0,0,0,4.112-5.434A16.544,16.544,0,0,0,21.316,50.5Z" style="fill:#73001a"/><path d="M18.261,53.869c-.74-1.347.313-3.136.531-3.48.326-.429.674-.833,1.033-1.223a17.175,17.175,0,0,0-2.033,2.223c-.218.344-1.271,2.133-.531,3.48A2.432,2.432,0,0,0,19.612,56c1.064,0,2.317-.891,3.622-2.333A4.311,4.311,0,0,1,20.612,55,2.432,2.432,0,0,1,18.261,53.869Z" style="fill:#73001a"/><path d="M39.634,47.836a47.543,47.543,0,0,1-4.384-3.244,23.5,23.5,0,0,0-6.373,1.126c-.153.286-.308.567-.464.847a23.658,23.658,0,0,1,5.837-.973,47.543,47.543,0,0,0,4.384,3.244C40.7,50.2,42.3,50.6,43.527,50.055a2.46,2.46,0,0,0,1.179-1.1c-.06.033-.113.072-.179.1C43.3,49.6,41.7,49.2,39.634,47.836Z" style="fill:#73001a"/><path d="M31,32a13.91,13.91,0,0,1-.487,3.235c.115.333.247.677.414,1.04A18.015,18.015,0,0,0,32,31c0-2-.293-2-1-2-.181,0-.469.385-.681,1.013C30.793,30.061,31,30.337,31,32Z" style="fill:#73001a"/><path d="M31.313,40.618c-.2.473-.427.948-.642,1.423q.41.491.864.979c.568-.107,1.135-.2,1.7-.267A24.532,24.532,0,0,1,31.313,40.618Z" style="fill:#73001a"/><path d="M41.661,45.337a14.788,14.788,0,0,0-3.021-.629q.975.717,2.1,1.459c1.979,1.308,2.77,1.145,2.967,1.065a.537.537,0,0,0,.287-.319C43.9,46.486,43.16,45.842,41.661,45.337Z" style="fill:#73001a"/><path d="M24,8v9h2V13h4V11H26V9h4V7H25A1,1,0,0,0,24,8Z" style="fill:#f2f2f2"/><path d="M11,7H8A1,1,0,0,0,7,8v9H9V13h2a3,3,0,0,0,0-6Zm0,4H9V9h2a1,1,0,0,1,0,2Z" style="fill:#f2f2f2"/><path d="M18,7H16a1,1,0,0,0-1,1v8a1,1,0,0,0,1,1h2A5,5,0,0,0,18,7Zm0,8H17V9h1a3,3,0,0,1,0,6Z" style="fill:#f2f2f2"/><rect x="26" y="9" width="3" height="1" style="fill:#73001a"/><path d="M24,8a1,1,0,0,0-1,1v9h2V17H24Z" style="fill:#73001a"/><rect x="26" y="13" width="3" height="1" style="fill:#73001a"/><path d="M11,9H9v1h1a1,1,0,0,1,1,1,1,1,0,0,0,0-2Z" style="fill:#73001a"/><path d="M9,13v1h1a2.993,2.993,0,0,0,2.554-1.446A2.976,2.976,0,0,1,11,13Z" style="fill:#73001a"/><path d="M7,8A1,1,0,0,0,6,9v9H8V17H7Z" style="fill:#73001a"/><path d="M21,12a3,3,0,0,0-3-3H17v1a2.984,2.984,0,0,1,2.554,4.554A2.993,2.993,0,0,0,21,12Z" style="fill:#73001a"/><path d="M16,17a1,1,0,0,1-1-1V8a1,1,0,0,0-1,1v8a1,1,0,0,0,1,1h2a4.981,4.981,0,0,0,3.986-2.014A4.953,4.953,0,0,1,18,17Z" style="fill:#73001a"/></g></svg>