<svg xmlns="http://www.w3.org/2000/svg" viewBox="0 0 64 64"><g id="_14-PPT" data-name="14-PPT"><path d="M43,1,55,13H43Z" style="fill:#cdd1d6"/><path d="M55,13V63H9V1H43V13Z" style="fill:#f2f2f2"/><path d="M11,9V57a4,4,0,0,0,4,4H49a4,4,0,0,0,4-4V54.877C11,52.289,11,9,11,9Z" style="fill:#e2e2e2"/><rect x="44" y="13" width="11" height="2" style="fill:#e2e2e2"/><rect x="1" y="4" width="36" height="16" style="fill:#d04626"/><rect x="9" y="20" width="26" height="3" style="fill:#e2e2e2"/><rect x="20" y="31" width="26" height="4" style="fill:#fff"/><path d="M16,27V55H50V27Zm4,4H46v4H20Zm6,21a6,6,0,0,1,0-12v6h6A6,6,0,0,1,26,52Zm2-8V38a6,6,0,0,1,6,6Z" style="fill:#d04626"/><rect x="39" y="41" width="8" height="2" style="fill:#fff"/><rect x="35" y="41" width="2" height="2" style="fill:#fff"/><rect x="39" y="45" width="8" height="2" style="fill:#fff"/><rect x="35" y="45" width="2" height="2" style="fill:#fff"/><rect x="39" y="49" width="8" height="2" style="fill:#fff"/><rect x="35" y="49" width="2" height="2" style="fill:#fff"/><path d="M12,7H9A1,1,0,0,0,8,8v9h2V13h2a3,3,0,0,0,0-6Zm0,4H10V9h2a1,1,0,0,1,0,2Z" style="fill:#fff"/><path d="M20,7H17a1,1,0,0,0-1,1v9h2V13h2a3,3,0,0,0,0-6Zm0,4H18V9h2a1,1,0,0,1,0,2Z" style="fill:#fff"/><polygon points="30 7 24 7 24 9 26 9 26 17 28 17 28 9 30 9 30 7" style="fill:#fff"/><path d="M10,13v1h1a2.993,2.993,0,0,0,2.554-1.446A2.976,2.976,0,0,1,12,13Z" style="fill:#ab381d"/><path d="M12,9H10v1h1a1,1,0,0,1,1,1,1,1,0,0,0,0-2Z" style="fill:#ab381d"/><path d="M8,8A1,1,0,0,0,7,9v9H9V17H8Z" style="fill:#ab381d"/><path d="M16,8a1,1,0,0,0-1,1v9h2V17H16Z" style="fill:#ab381d"/><path d="M20,9H18v1h1a1,1,0,0,1,1,1,1,1,0,0,0,0-2Z" style="fill:#ab381d"/><path d="M18,13v1h1a2.993,2.993,0,0,0,2.554-1.446A2.976,2.976,0,0,1,20,13Z" style="fill:#ab381d"/><rect x="28" y="9" width="1" height="1" style="fill:#ab381d"/><polygon points="26 9 24 9 24 8 23 8 23 10 25 10 25 18 27 18 27 17 26 17 26 9" style="fill:#ab381d"/><polygon points="16 29 16 55 48 55 48 57 14 57 14 29 16 29" style="fill:#ccc"/><path d="M28,44V39.09A6,6,0,0,0,27,39v6h6a6,6,0,0,0-.09-1Z" style="fill:#ab381d"/><path d="M20,46a5.96,5.96,0,0,1,1.292-3.708,5.994,5.994,0,1,0,8.416,8.416A5.991,5.991,0,0,1,20,46Z" style="fill:#ab381d"/><path d="M34,44H28V38A6,6,0,0,1,34,44Z" style="fill:#fff"/><path d="M28,46h4a6,6,0,1,1-6-6v6Z" style="fill:#fff"/></g></svg>