<svg xmlns="http://www.w3.org/2000/svg" viewBox="0 0 64 64"><g id="_25-procreate" data-name="25-procreate"><rect x="1" y="1" width="62" height="62" rx="12" style="fill:#2b2b2b"/><path d="M6.022,14.565C6.016,14.711,6,14.853,6,15V49A10,10,0,0,0,16,59H49a10,10,0,0,0,9.95-9C9.916,49.978,6.29,19.128,6.022,14.565Z" style="fill:#1f1f1f"/><path d="M35,25c.92-.22,1.79-.46,2.61-.73a36.832,36.832,0,0,1-8.96,4.22,23.456,23.456,0,0,0-4.01,1.76c-.72.41-1.45.85-2,1.23-.01.01-.02.02-.03.02A26.1,26.1,0,0,0,19,34c-5.44,4.53-6.77,13.99-6.97,15.72-.02.18-.03.28-.03.28C12,37,19.15,28.73,35,25Z" style="fill:#3ed395"/><path d="M51,8s1,10-4,14-13,5-13,5a45.213,45.213,0,0,0-11.36,4.48c.55-.38,1.28-.82,2-1.23a23.456,23.456,0,0,1,4.01-1.76,36.832,36.832,0,0,0,8.96-4.22C51.89,19.63,51,8,51,8Z" style="fill:#6368d4"/><path d="M34.75,35.36A118.307,118.307,0,0,1,22,39c-8,2-10,11-10,11s.01-.1.03-.28a18.572,18.572,0,0,1,5.95-10.75L18,39s4-3,7-3C29.31,36,32.13,36,34.75,35.36Z" style="fill:#ffb00e"/><path d="M34.75,35.36C32.13,36,29.31,36,25,36c-3,0-7,3-7,3l-.02-.03A19.988,19.988,0,0,1,25,35c12-4,16-2,24-10C46.2,30.05,40.57,33.2,34.75,35.36Z" style="fill:#fb4996"/><path d="M52,12v3a22.191,22.191,0,0,1-3,10c-8,8-12,6-24,10a19.988,19.988,0,0,0-7.02,3.97,18.572,18.572,0,0,0-5.95,10.75C12.23,47.99,13.56,38.53,19,34a26.1,26.1,0,0,1,3.61-2.5c.01,0,.02-.01.03-.02A45.213,45.213,0,0,1,34,27s8-1,13-5S51,8,51,8A10.833,10.833,0,0,1,52,12Z" style="fill:#e760d4"/><path d="M22,39a12.553,12.553,0,0,0-7.1,4.914A11.846,11.846,0,0,1,19,42a118.307,118.307,0,0,0,12.75-3.64c4.974-1.846,9.8-4.42,12.852-8.281A35.29,35.29,0,0,1,34.75,35.36,118.307,118.307,0,0,1,22,39Z" style="fill:#0a0a0a"/><path d="M9,53a18.054,18.054,0,0,1,3.208-6.491,21.742,21.742,0,0,1,4.685-11.675C11.539,39.256,9,45.289,9,53Z" style="fill:#0a0a0a"/><path d="M49,15.7V15a10.833,10.833,0,0,0-1-4,15.223,15.223,0,0,1-3.263,9.6A16.56,16.56,0,0,0,49,15.7Z" style="fill:#0a0a0a"/></g></svg>