<svg xmlns="http://www.w3.org/2000/svg" viewBox="0 0 64 64"><g id="_26-Premiere_pro" data-name="26-Premiere pro"><path d="M43,1,55,13H43Z" style="fill:#dd76fd"/><path d="M55,13V63H9V1H43V13Z" style="fill:#410d57"/><path d="M11,9V57a4,4,0,0,0,4,4H49a4,4,0,0,0,4-4V54.877C11,52.289,11,9,11,9Z" style="fill:#2e0a3b"/><rect x="44" y="13" width="11" height="2" style="fill:#320b40"/><rect x="1" y="4" width="36" height="16" style="fill:#dd76fd"/><rect x="9" y="20" width="26" height="3" style="fill:#320b40"/><path d="M27,31H20V53h4V45h3a7,7,0,0,0,0-14Zm0,10H24V35h3a3,3,0,0,1,0,6Z" style="fill:#dc68ff"/><path d="M40,37H37V53h4V43a4.333,4.333,0,0,1,4-2V37s-3,0-4,2A3.1,3.1,0,0,0,40,37Z" style="fill:#dc68ff"/><path d="M18,17H16v-.667l-2-2.666V17H12V8a1,1,0,0,1,1-1h2a3,3,0,0,1,.9,5.863L17.8,15.4a1,1,0,0,1,.2.6Zm-4-6h1a1,1,0,0,0,0-2H14Z" style="fill:#320b40"/><path d="M6,17H4V8A1,1,0,0,1,5,7H8a3,3,0,0,1,0,6H6Zm0-6H8A1,1,0,0,0,8,9H6Z" style="fill:#320b40"/><path d="M31,17a3,3,0,0,1-3-3V13h2v1a1,1,0,0,0,2,0V7h2v7A3,3,0,0,1,31,17Z" style="fill:#320b40"/><path d="M23,17a4,4,0,0,1-4-4V11a4,4,0,0,1,8,0v2A4,4,0,0,1,23,17Zm0-8a2,2,0,0,0-2,2v2a2,2,0,0,0,4,0V11A2,2,0,0,0,23,9Z" style="fill:#320b40"/><path d="M24,45v2h1a6.991,6.991,0,0,0,5.846-3.154A6.963,6.963,0,0,1,27,45Z" style="fill:#200926"/><path d="M30,38a3,3,0,0,0-3-3H24v2h1a2.96,2.96,0,0,1,2.86,3.86A2.99,2.99,0,0,0,30,38Z" style="fill:#200926"/><polygon points="20 33 18 33 18 55 22 55 22 53 20 53 20 33" style="fill:#200926"/><path d="M41,43v.363A5.37,5.37,0,0,1,43,43V41.363A3.922,3.922,0,0,0,41,43Z" style="fill:#200926"/><polygon points="37 39 35 39 35 55 39 55 39 53 37 53 37 39" style="fill:#200926"/><path d="M16.1,13.137a3.022,3.022,0,0,0,.452-.583,2.932,2.932,0,0,1-.658.309Z" style="fill:#af56c9"/><path d="M12,8a1,1,0,0,0-1,1v9h2V17H12Z" style="fill:#af56c9"/><polygon points="16 16.333 14 13.667 14 16 15 17.333 15 18 17 18 17 17 16 17 16 16.333" style="fill:#af56c9"/><path d="M15,11a1,1,0,0,0,0-2H14v1A1,1,0,0,1,15,11Z" style="fill:#af56c9"/><path d="M4,8A1,1,0,0,0,3,9v9H5V17H4Z" style="fill:#af56c9"/><path d="M8,9H6v1H7a1,1,0,0,1,1,1A1,1,0,0,0,8,9Z" style="fill:#af56c9"/><path d="M6,13v1H7a2.993,2.993,0,0,0,2.554-1.446A2.976,2.976,0,0,1,8,13Z" style="fill:#af56c9"/><path d="M28,14H27v1a2.992,2.992,0,0,0,5.554,1.554A2.984,2.984,0,0,1,28,14Z" style="fill:#af56c9"/><path d="M32,14V8H31v7A1,1,0,0,0,32,14Z" style="fill:#af56c9"/><path d="M19,13V11a3.972,3.972,0,0,1,.72-2.279A3.993,3.993,0,0,0,18,12v2a4,4,0,0,0,7.28,2.279A3.992,3.992,0,0,1,19,13Z" style="fill:#af56c9"/><path d="M23,9a2,2,0,0,0-1.82,1.18A1.992,1.992,0,0,1,24,12v2a1.99,1.99,0,0,1-.18.82A2,2,0,0,0,25,13V11A2,2,0,0,0,23,9Z" style="fill:#af56c9"/></g></svg>