<svg xmlns="http://www.w3.org/2000/svg" viewBox="0 0 64 64"><g id="_09-PSD" data-name="09-PSD"><path d="M43,1,55,13H43Z" style="fill:#6ab9e2"/><path d="M55,13V63H9V1H43V13Z" style="fill:#0559b1"/><path d="M11,9V57a4,4,0,0,0,4,4H49a4,4,0,0,0,4-4V54.877C11,52.289,11,9,11,9Z" style="fill:#044994"/><rect x="44" y="13" width="11" height="2" style="fill:#023668"/><path d="M30.95,32.05A7,7,0,0,1,26,44H23v8H19V30h7A6.958,6.958,0,0,1,30.95,32.05ZM29,37a3,3,0,0,0-3-3H23v6h3A3,3,0,0,0,29,37Z" style="fill:#51d4ff"/><path d="M45,37.68v3.37c-.01-.01-2.42-1.68-4.17-1.68-.74,0-1.66.09-1.66.84,0,.64.66,1.09,2.07,1.91,1.59.91,3.76,2.17,3.76,4.83A4.707,4.707,0,0,1,40,52c-3.35,0-4.91-1.55-5-1.68V46.95c.01.01,3.47,1.68,5,1.68,1.46,0,1.67-.81,1.67-1.68,0-.64-.67-1.09-2.08-1.91-1.59-.91-3.76-2.17-3.76-4.83A3.887,3.887,0,0,1,40,36C44.17,36,45,37.68,45,37.68Z" style="fill:#51d4ff"/><path d="M23,44v1h2a6.982,6.982,0,0,0,5.425-2.575A6.973,6.973,0,0,1,26,44Z" style="fill:#023668"/><path d="M26,34H23v1h2a2.987,2.987,0,0,1,2.555,4.555A3,3,0,0,0,26,34Z" style="fill:#023668"/><polygon points="19 31 18 31 18 53 22 53 22 52 19 52 19 31" style="fill:#023668"/><path d="M44,42.05V40.44a7.379,7.379,0,0,0-3.17-1.07c-.74,0-1.66.09-1.66.84a.848.848,0,0,0,.026.2,5.226,5.226,0,0,1,.634-.035C41.58,40.37,43.99,42.04,44,42.05Z" style="fill:#023668"/><path d="M41.67,46.95c0-.64-.67-1.09-2.08-1.91-1.59-.91-3.76-2.17-3.76-4.83a4.538,4.538,0,0,1,.7-2.543,4.008,4.008,0,0,0-1.7,3.543c0,2.66,2.17,3.92,3.76,4.83,1.41.82,2.08,1.27,2.08,1.91a3.106,3.106,0,0,1-.053.61C41.513,48.353,41.67,47.676,41.67,46.95Z" style="fill:#023668"/><path d="M35,50.32V48.407c-.59-.257-1-.454-1-.457v3.37c.09.13,1.65,1.68,5,1.68a4.79,4.79,0,0,0,4.063-1.906A5.208,5.208,0,0,1,40,52C36.65,52,35.09,50.45,35,50.32Z" style="fill:#023668"/><rect x="1" y="4" width="36" height="16" style="fill:#044994"/><path d="M11,7H8A1,1,0,0,0,7,8v9H9V13h2a3.015,3.015,0,0,0,3-3A3,3,0,0,0,11,7Zm.694,3.712A.957.957,0,0,1,11,11H9V9h2a1,1,0,0,1,1,1A.974.974,0,0,1,11.694,10.712Z" style="fill:#f2f2f2"/><path d="M30.532,8.458A5.006,5.006,0,0,0,27,7H25a1,1,0,0,0-1,1v8a1,1,0,0,0,1,1h2a5,5,0,0,0,3.532-8.542ZM27,15H26V9h1a3,3,0,0,1,0,6Z" style="fill:#f2f2f2"/><path d="M18,9c1.84,0,1.989.857,2,1h2c0-1.038-.836-3-4-3a3.015,3.015,0,0,0-3,3,3,3,0,0,0,3,3h1a.974.974,0,0,1,.712.306A.957.957,0,0,1,20,14a1,1,0,0,1-1,1c-1.84,0-1.989-.857-2-1.029L16,14H15c0,1.038.836,3,4,3a3,3,0,0,0,3-3,3.015,3.015,0,0,0-3-3H18a1,1,0,0,1-1-1,.974.974,0,0,1,.306-.712A.957.957,0,0,1,18,9Z" style="fill:#f2f2f2"/><rect x="9" y="20" width="26" height="3" style="fill:#023668"/><path d="M11,9H9v1h1a1,1,0,0,1,1,1,.957.957,0,0,0,.694-.288A.974.974,0,0,0,12,10,1,1,0,0,0,11,9Z" style="fill:#023668"/><path d="M7,12V8A1,1,0,0,0,6,9v9H8V17H7Z" style="fill:#023668"/><path d="M9,13v1h1a2.979,2.979,0,0,0,2.552-1.442A2.965,2.965,0,0,1,11,13Z" style="fill:#023668"/><path d="M25,17a1,1,0,0,1-1-1V8a1,1,0,0,0-1,1v8a1,1,0,0,0,1,1h2a4.981,4.981,0,0,0,3.986-2.014A4.953,4.953,0,0,1,27,17Z" style="fill:#023668"/><path d="M30,12a2.994,2.994,0,0,0-3-3H26v1a2.994,2.994,0,0,1,3,3,2.976,2.976,0,0,1-.446,1.554A2.993,2.993,0,0,0,30,12Z" style="fill:#023668"/><path d="M18,9a.957.957,0,0,0-.694.288A.974.974,0,0,0,17,10c1.84,0,1.989.857,2,1h2a2.63,2.63,0,0,0-.227-1H20C19.989,9.857,19.84,9,18,9Z" style="fill:#023668"/><path d="M15.224,14.994,15,15H14c0,1.038.836,3,4,3a2.993,2.993,0,0,0,2.554-1.446A2.976,2.976,0,0,1,19,17C16.7,17,15.635,15.96,15.224,14.994Z" style="fill:#023668"/><path d="M17,14h1a.974.974,0,0,1,.712.306A.957.957,0,0,1,19,15a1,1,0,0,0,1-1,.957.957,0,0,0-.288-.694A.974.974,0,0,0,19,13H18a3,3,0,0,1-3-3,2.953,2.953,0,0,1,.448-1.558,2.832,2.832,0,0,0-.556.432A2.944,2.944,0,0,0,14,11a3,3,0,0,0,2.778,2.978L17,13.971Z" style="fill:#023668"/></g></svg>