<svg xmlns="http://www.w3.org/2000/svg" viewBox="0 0 64 64"><g id="_04-RAW" data-name="04-RAW"><path d="M43,1,55,13H43Z" style="fill:#cdd1d6"/><path d="M55,13V63H9V1H43V13Z" style="fill:#f2f2f2"/><path d="M11,9V57a4,4,0,0,0,4,4H49a4,4,0,0,0,4-4V54.877C11,52.289,11,9,11,9Z" style="fill:#e2e2e2"/><rect x="44" y="13" width="11" height="2" style="fill:#e2e2e2"/><rect x="1" y="4" width="36" height="16" style="fill:#07017d"/><rect x="9" y="20" width="26" height="3" style="fill:#e2e2e2"/><polygon points="35 35 38 41 35 47 28 47 24.82 41.1 25 41 28.69 35 35 35" style="fill:#f2f2f2"/><path d="M38,41l4.97,6.96A12.963,12.963,0,0,1,32,54c-.33,0-.66-.01-.98-.04L35,47Z" style="fill:#cacaca"/><path d="M35,47l-3.98,6.96A12.967,12.967,0,0,1,20.47,47H35Z" style="fill:#cacaca"/><path d="M24.82,41.1,28,47H20.47a12.991,12.991,0,0,1,.55-12.96Z" style="fill:#cacaca"/><path d="M28.69,35,25,41l-.18.1-3.8-7.06A12.993,12.993,0,0,1,32,28c.33,0,.65.01.97.04Z" style="fill:#cacaca"/><path d="M43.53,35H28.69l4.28-6.96A12.983,12.983,0,0,1,43.53,35Z" style="fill:#cacaca"/><path d="M43.53,35a12.962,12.962,0,0,1-.56,12.96L38,41l-3-6Z" style="fill:#cacaca"/><path d="M13,10a3,3,0,0,0-3-3H8A1,1,0,0,0,7,8v9H9V13.667l2,2.666V17h2V16a1,1,0,0,0-.2-.6l-1.9-2.537A3.005,3.005,0,0,0,13,10Zm-3,1H9V9h1a1,1,0,0,1,0,2Z" style="fill:#8fb5f4"/><path d="M30.006,6.89l-.385,3.469-.651-2.6a1,1,0,0,0-1.94,0l-.651,2.6L25.994,6.89l-1.988.22,1,9a1,1,0,0,0,1.964.133L28,12.123l1.03,4.12A1,1,0,0,0,30,17c.022,0,.044,0,.067,0a1,1,0,0,0,.927-.888l1-9Z" style="fill:#8fb5f4"/><path d="M22.98,16.78l-2-9A1.015,1.015,0,0,0,20,7H18a1.015,1.015,0,0,0-.98.78l-2,9A1.635,1.635,0,0,0,15,17h2.02l.67-3h2.62l.67,3H23A1.635,1.635,0,0,0,22.98,16.78ZM18.14,12l.66-3h.4l.66,3Z" style="fill:#8fb5f4"/><path d="M21.807,17H20.98l-.67-3H17.69l-.223,1H19.31l.67,3H22a1.635,1.635,0,0,0-.02-.22Z" style="fill:#040147"/><polygon points="19.86 12 19.2 9 18.8 9 18.39 10.864 18.64 12 19.86 12" style="fill:#040147"/><path d="M15.02,16.78l1.95-8.775a1.015,1.015,0,0,0-.95.775l-2,9A1.635,1.635,0,0,0,14,18h2.02l.223-1H15A1.635,1.635,0,0,1,15.02,16.78Z" style="fill:#040147"/><polygon points="11 16.333 9 13.667 9 16 10 17.333 10 18 12 18 12 17 11 17 11 16.333" style="fill:#040147"/><path d="M10.9,12.863l.206.274a3.013,3.013,0,0,0,.452-.583A2.977,2.977,0,0,1,10.9,12.863Z" style="fill:#040147"/><path d="M7,8A1,1,0,0,0,6,9v9H8V17H7Z" style="fill:#040147"/><path d="M10,9H9v1a1,1,0,0,1,1,1,1,1,0,0,0,0-2Z" style="fill:#040147"/><path d="M26.968,8.005a1,1,0,0,0-.8.443l.212,1.911Z" style="fill:#040147"/><polygon points="29.884 7.987 29.006 7.89 29.005 7.898 29.621 10.359 29.884 7.987" style="fill:#040147"/><path d="M25.006,16.11l-.9-8.122-1.1.122,1,9a1,1,0,0,0,1.964.133l.064-.256c-.034,0-.066.013-.1.011A1,1,0,0,1,25.006,16.11Z" style="fill:#040147"/><path d="M29.03,16.243,28,12.123l-.625,2.5.655,2.62A1,1,0,0,0,29,18c.022,0,.044,0,.067,0a1,1,0,0,0,.927-.888l.012-.11H30A1,1,0,0,1,29.03,16.243Z" style="fill:#040147"/><path d="M32,55c-.362,0-.724-.012-1.074-.045a13.865,13.865,0,0,1-11.343-7.494A14,14,0,0,1,32,27c.362,0,.713.011,1.064.044A14,14,0,0,1,46,41,14.021,14.021,0,0,1,32,55Zm0-26a12,12,0,0,0-.906,23.963c.309.029.608.037.906.037A12,12,0,0,0,42.644,35.463l0,0A12.054,12.054,0,0,0,32.9,29.037C32.587,29.008,32.3,29,32,29Z" style="fill:#919191"/><polygon points="28.969 35.5 25.453 41.217 28.298 46.5 34.691 46.5 37.441 41 34.691 35.5 28.969 35.5" style="fill:none"/><path d="M42.609,46.593,38.43,40.741,35.809,35.5h9.038c-.139-.323-.268-.651-.431-.963L44.4,34.5H29.584l3.356-5.457L33.4,28.3l.683-1.136c-.337-.051-.676-.092-1.018-.118-.025,0-.051,0-.077,0l-.443.737-.759,1.236L24.905,40.2l-3.034-5.633-.4-.751-.628-1.257c-.228.3-.448.609-.653.931l.394.787.711,1.32,5.872,10.9h-8.01c.138.323.267.65.43.961.006.013.014.026.021.039H34.138L31.02,52.953l-.429.75L29.91,54.84c.336.049.674.09,1.016.115.025,0,.053,0,.078,0l.45-.75.7-1.217,3.284-5.743c.005-.008,0-.019.007-.027l.006,0,2.629-5.257,3.973,5.563.505.707.709,1.063c.191-.259.375-.525.549-.8.02-.031.037-.064.056-.095l-.491-.736ZM34.691,46.5H28.3l-2.845-5.283L28.969,35.5h5.722l2.75,5.5Z" style="fill:#fff"/></g></svg>