<svg xmlns="http://www.w3.org/2000/svg" viewBox="0 0 64 64"><g id="_08-TIFF" data-name="08-TIFF"><path d="M43,1,55,13H43Z" style="fill:#cdd1d6"/><path d="M55,13V63H9V1H43V13Z" style="fill:#f2f2f2"/><path d="M11,9V57a4,4,0,0,0,4,4H49a4,4,0,0,0,4-4V54.877C11,52.289,11,9,11,9Z" style="fill:#e2e2e2"/><rect x="44" y="13" width="11" height="2" style="fill:#e2e2e2"/><path d="M26.712,45C32.806,50.249,41.261,54.153,53,54.877V57a4,4,0,0,1-4,4H15a4,4,0,0,1-4-4V45H9V63H55V45Z" style="fill:#1667bf"/><path d="M11,57a4,4,0,0,0,4,4H49a4,4,0,0,0,4-4V54.877C41.261,54.153,32.806,50.249,26.712,45H11Z" style="fill:#12559c"/><polygon points="18 17 18 34 18 41 45 41 46 41 46 34 46 17 18 17" style="fill:#f7f8f9"/><polygon points="18 34 18 20 15 20 15 37 15 44 42 44 43 44 43 41 18 41 18 34" style="fill:#cdd1d6"/><path d="M46,42H18a1,1,0,0,1-1-1V17a1,1,0,0,1,1-1H46a1,1,0,0,1,1,1V41A1,1,0,0,1,46,42ZM19,40H45V18H19Z" style="fill:#1667bf"/><rect x="9" y="44" width="46" height="2" style="fill:#104c8c"/><rect x="21" y="21" width="10" height="10" style="fill:#d0d0d0"/><circle cx="38" cy="33" r="5" style="fill:#d0d0d0"/><polygon points="39 30 29 26.85 36.747 20 39 30" style="fill:#dfdfdf"/><path d="M38.98,27.635,37.235,19.89a.5.5,0,0,0-.334-.366.5.5,0,0,0-.484.1L31.5,23.972V21a.5.5,0,0,0-.5-.5H21a.5.5,0,0,0-.5.5V31a.5.5,0,0,0,.5.5H31a.5.5,0,0,0,.5-.5V28.161l2.726.859a5.518,5.518,0,1,0,4.754-1.385Zm-2.535-6.7,1.63,7.232.246,1.095-2.908-.917L31.15,27l-1.156-.364,1.337-1.182ZM21.5,30.5v-9h9v3.356l-1.831,1.619a.5.5,0,0,0,.181.852l1.65.519V30.5Zm16.5,7a4.5,4.5,0,0,1-2.654-8.127l3.5,1.1a.5.5,0,0,0,.638-.587l-.27-1.2A4.486,4.486,0,0,1,38,37.5Z" style="fill:#858585"/><rect x="27" y="49" width="2" height="10" style="fill:#f2f2f2"/><path d="M31,50v9h2V55h4V53H33V51h4V49H32A1,1,0,0,0,31,50Z" style="fill:#f2f2f2"/><path d="M45,51V49H40a1,1,0,0,0-1,1v9h2V55h4V53H41V51Z" style="fill:#f2f2f2"/><polygon points="19 51 21 51 21 59 23 59 23 51 25 51 25 49 19 49 19 51" style="fill:#f2f2f2"/></g></svg>