<svg xmlns="http://www.w3.org/2000/svg" viewBox="0 0 64 64"><g id="_15-XLS" data-name="15-XLS"><path d="M43,1,55,13H43Z" style="fill:#cdd1d6"/><path d="M55,13V63H9V1H43V13Z" style="fill:#f2f2f2"/><path d="M11,9V57a4,4,0,0,0,4,4H49a4,4,0,0,0,4-4V54.877C11,52.289,11,9,11,9Z" style="fill:#e2e2e2"/><rect x="44" y="13" width="11" height="2" style="fill:#e2e2e2"/><rect x="1" y="4" width="36" height="16" style="fill:#6ab04e"/><rect x="9" y="20" width="26" height="3" style="fill:#e2e2e2"/><rect x="14" y="24" width="18" height="16" style="fill:#6ab04e"/><rect x="14" y="44" width="36" height="15" style="fill:#cdd1d6"/><polygon points="29 27 27.286 27 25.893 27 23 30.253 20.107 27 18.714 27 17 27 21.286 32 17 37 20.429 37 23 34 25.571 37 29 37 24.714 32 29 27" style="fill:#fff"/><path d="M50,43H14a1,1,0,0,0-1,1V59a1,1,0,0,0,1,1H50a1,1,0,0,0,1-1V44A1,1,0,0,0,50,43ZM15,50H25v3H15Zm12,0H37v3H27Zm12,0H49v3H39Zm10-2H39V45H49ZM37,48H27V45H37ZM15,45H25v3H15Zm0,10H25v3H15Zm12,0H37v3H27Zm22,3H39V55H49Z" style="fill:#949cae"/><polygon points="9.5 17 14.5 17 12 13.667 9.5 17" style="fill:none"/><path d="M28,17c-3.164,0-4-1.962-4-3h1l1-.029c.011.172.16,1.029,2,1.029a1,1,0,0,0,0-2H27a3,3,0,0,1,0-6c3.164,0,4,1.962,4,3H29c-.011-.143-.16-1-2-1a1,1,0,0,0,0,2h1a3,3,0,0,1,0,6Z" style="fill:#fff"/><path d="M23,17H19a1,1,0,0,1-1-1V7h2v8h3Z" style="fill:#fff"/><polygon points="17 7 14.5 7 12 10.333 9.5 7 7 7 10.75 12 7 17 9.5 17 12 13.667 14.5 17 17 17 13.25 12 17 7" style="fill:#fff"/><rect x="40" y="27" width="11" height="2" style="fill:#6ab04e"/><rect x="36" y="27" width="2" height="2" style="fill:#6ab04e"/><rect x="40" y="31" width="11" height="2" style="fill:#6ab04e"/><rect x="36" y="31" width="2" height="2" style="fill:#6ab04e"/><rect x="40" y="35" width="11" height="2" style="fill:#6ab04e"/><rect x="36" y="35" width="2" height="2" style="fill:#6ab04e"/><polygon points="23 34 22.071 35.083 24.571 38 28 38 27.143 37 25.571 37 23 34" style="fill:#56913d"/><polygon points="21.286 32 17.857 28 17.714 28 16 28 20.286 33 16 38 19.429 38 20.286 37 17 37 21.286 32" style="fill:#56913d"/><path d="M29.56,16.56A3.012,3.012,0,0,1,27,18c-3.16,0-4-1.96-4-3h1.22c.41.96,1.48,2,3.78,2A2.981,2.981,0,0,0,29.56,16.56Z" style="fill:#56913d"/><path d="M29,14a1,1,0,0,1-1,1,1,1,0,0,0-1-1H26v-.03l-.3.01h-.01a3,3,0,0,1-1.25-5.54A3,3,0,0,0,27,13h1A1,1,0,0,1,29,14Z" style="fill:#56913d"/><path d="M30,11H28c-.01-.14-.16-1-2-1a1,1,0,0,1,1-1c1.84,0,1.99.86,2,1h.78A2.522,2.522,0,0,1,30,11Z" style="fill:#56913d"/><path d="M22,17v1H18a1,1,0,0,1-1-1V8h1v8a1,1,0,0,0,1,1Z" style="fill:#56913d"/><polygon points="7 17 9.25 17 8.5 18 6 18 9.75 13 6 8 7.75 8 10.75 12 7 17" style="fill:#56913d"/><polygon points="16 18 13.5 18 11.12 14.84 12 13.67 14.5 17 15.25 17 16 18" style="fill:#56913d"/></g></svg>