<svg xmlns="http://www.w3.org/2000/svg" viewBox="0 0 64 64"><g id="_19-ZIP" data-name="19-ZIP"><path d="M43,1,55,13H43Z" style="fill:#cdd1d6"/><path d="M55,13V63H9V1H43V13Z" style="fill:#f2f2f2"/><path d="M11,9V57a4,4,0,0,0,4,4H49a4,4,0,0,0,4-4V54.877C11,52.289,11,9,11,9Z" style="fill:#e2e2e2"/><rect x="44" y="13" width="11" height="2" style="fill:#e2e2e2"/><rect x="1" y="4" width="36" height="16" style="fill:#676bf9"/><rect x="9" y="20" width="26" height="3" style="fill:#e2e2e2"/><polygon points="36 43 36 44 35 44 32 44 29 44 28 44 28 43 28 37 28 36 29 36 35 36 36 36 36 37 36 43" style="fill:#ffac2b"/><polygon points="35 49 35 50 29 50 29 49 29 44 32 44 35 44 35 49" style="fill:#ffac2b"/><polygon points="35 31 35 36 29 36 29 31 29 30 35 30 35 31" style="fill:#ffac2b"/><path d="M36,44V43h8a1,1,0,0,1,1,1v4a1,1,0,0,1-1,1H35V44Z" style="fill:#17832f"/><path d="M29,44v5H20a1,1,0,0,1-1-1V44a1,1,0,0,1,1-1h8v1Z" style="fill:#17832f"/><path d="M44,46H35v3h9a1,1,0,0,0,1-1V45A1,1,0,0,1,44,46Z" style="fill:#116e26"/><path d="M19,45v3a1,1,0,0,0,1,1h9V46H20A1,1,0,0,1,19,45Z" style="fill:#116e26"/><path d="M45,38v4a1,1,0,0,1-1,1H36V37h8A1,1,0,0,1,45,38Z" style="fill:#676bf9"/><path d="M28,37v6H20a1,1,0,0,1-1-1V38a1,1,0,0,1,1-1h8Z" style="fill:#676bf9"/><path d="M44,40H36v3h8a1,1,0,0,0,1-1V39A1,1,0,0,1,44,40Z" style="fill:#383a99"/><path d="M20,40a1,1,0,0,1-1-1v3a1,1,0,0,0,1,1h8V40H20Z" style="fill:#383a99"/><path d="M45,32v4a1,1,0,0,1-1,1H36V36H35V31h9A1,1,0,0,1,45,32Z" style="fill:#e14571"/><path d="M29,31v5H28v1H20a1,1,0,0,1-1-1V32a1,1,0,0,1,1-1Z" style="fill:#e14571"/><path d="M44,34H35v2h1v1h8a1,1,0,0,0,1-1V33A1,1,0,0,1,44,34Z" style="fill:#cd2646"/><path d="M19,33v3a1,1,0,0,0,1,1h8V36h1V34H20A1,1,0,0,1,19,33Z" style="fill:#cd2646"/><rect x="29" y="44" width="6" height="3" style="fill:#ed9409"/><rect x="29" y="33" width="6" height="6" style="fill:#ed9409"/><path d="M36,45H28a1,1,0,0,1-1-1V36a1,1,0,0,1,1-1h8a1,1,0,0,1,1,1v8A1,1,0,0,1,36,45Zm-7-2h6V37H29Z" style="fill:#fff"/><rect x="21" y="32" width="1" height="4" style="fill:#ffcb36"/><rect x="21" y="38" width="1" height="4" style="fill:#ffcb36"/><rect x="21" y="44" width="1" height="4" style="fill:#ffcb36"/><rect x="31" y="40" width="2" height="4" style="fill:#c2c2c2"/><path d="M15,7H9V9h4L8.2,15.4A1,1,0,0,0,9,17h6V15H11l4.8-6.4A1,1,0,0,0,15,7Z" style="fill:#fff"/><rect x="18" y="7" width="2" height="10" style="fill:#fff"/><path d="M27,7H24a1,1,0,0,0-1,1v9h2V13h2a3,3,0,0,0,0-6Zm0,4H25V9h2a1,1,0,0,1,0,2Z" style="fill:#fff"/><path d="M35,50H29V49H20a1,1,0,0,1-1-1V44a1,1,0,0,1,1-1,1,1,0,0,1-1-1V38a1,1,0,0,1,1-1,1,1,0,0,1-1-1V34H17a1,1,0,0,0-1,1v4a1,1,0,0,0,1,1,1,1,0,0,0-1,1v4a1,1,0,0,0,1,1,1,1,0,0,0-1,1v4a1,1,0,0,0,1,1h9v1h6V52h9a1,1,0,0,0,1-1V49H35Z" style="fill:#c2c2c2"/><path d="M8.105,16.447A1,1,0,0,1,8.2,15.4L13,9H9V8H8v2h4L7.2,16.4A1,1,0,0,0,8,18h6V17H9A1,1,0,0,1,8.105,16.447Z" style="fill:#4a4dd9"/><polygon points="18 8 17 8 17 18 19 18 19 17 18 17 18 8" style="fill:#4a4dd9"/><path d="M23,8a1,1,0,0,0-1,1v9h2V17H23Z" style="fill:#4a4dd9"/><path d="M25,13v1h1a2.993,2.993,0,0,0,2.554-1.446A2.976,2.976,0,0,1,27,13Z" style="fill:#4a4dd9"/><path d="M27,9H25v1h1a1,1,0,0,1,1,1,1,1,0,0,0,0-2Z" style="fill:#4a4dd9"/></g></svg>